<svg width="749" height="460" viewBox="0 0 749 460" fill="none" xmlns="http://www.w3.org/2000/svg">
<path fill-rule="evenodd" clip-rule="evenodd" d="M604.119 532.584V532.584L602.235 535.545L600.379 538.519L598.55 541.507L596.747 544.51L594.968 547.53L593.209 550.566L591.47 553.618L589.748 556.688L588.04 559.775L586.344 562.878L584.656 565.998L582.972 569.133L581.291 572.282L579.608 575.444L577.92 578.617L576.223 581.8L574.514 584.99L572.789 588.186L571.045 591.384L569.277 594.583L567.483 597.779L565.659 600.969L563.801 604.149L561.906 607.318L559.971 610.47L557.993 613.602L555.968 616.711L553.894 619.792L551.769 622.841L549.589 625.855L547.353 628.828L545.059 631.757L542.704 634.637L540.287 637.465L537.807 640.235L535.262 642.943L532.652 645.586L529.976 648.159L527.233 650.658L524.423 653.08L521.547 655.419L518.605 657.673L515.597 659.839L512.524 661.912L509.388 663.89L506.189 665.769L502.929 667.548L499.611 669.223L496.236 670.793L492.806 672.256L489.324 673.609L485.791 674.852L482.212 675.982L478.588 676.999L474.922 677.902L471.217 678.689L467.476 679.361L463.703 679.918L459.9 680.358L456.07 680.683L452.218 680.893L448.346 680.989L444.457 680.971L440.556 680.84L436.645 680.599L432.727 680.248L428.806 679.79L424.886 679.225L420.97 678.558L417.06 677.789L413.16 676.921L409.273 675.958L405.402 674.902L401.55 673.756L397.719 672.523L393.913 671.207L390.134 669.811L386.384 668.339L382.666 666.795L378.982 665.182L375.334 663.504L371.724 661.765L368.154 659.97L364.625 658.121L361.139 656.224L357.697 654.283L354.301 652.301L350.951 650.284L347.649 648.234L344.394 646.156L341.188 644.054L338.031 641.933L334.923 639.795L331.865 637.646L328.856 635.489L325.896 633.327L322.985 631.165L320.122 629.006L317.307 626.853L314.539 624.709L311.818 622.579L309.141 620.464L306.509 618.368L303.92 616.294L301.373 614.244L298.867 612.22L296.399 610.226L293.97 608.263L291.576 606.333L289.217 604.438L286.891 602.58L284.596 600.761L282.331 598.983L280.093 597.248L277.88 595.558L275.691 593.914L273.523 592.318L271.375 590.772L269.244 589.278L267.127 587.837L265.024 586.449L262.93 585.117L260.845 583.842L258.765 582.624L256.688 581.465L254.612 580.364L252.534 579.323L250.452 578.343L248.364 577.422L246.267 576.562L244.158 575.762L242.035 575.023L239.897 574.343L237.74 573.723L235.562 573.162L233.361 572.659L231.135 572.212L228.881 571.822L226.599 571.487L224.285 571.205L221.937 570.975L219.554 570.796L217.135 570.665L214.676 570.581L212.177 570.543L209.636 570.548L207.052 570.594L204.423 570.679L201.747 570.8L199.025 570.957L196.254 571.145L193.433 571.364L190.562 571.609L187.64 571.879L184.666 572.169L181.641 572.478L178.563 572.802L175.434 573.138L172.253 573.481L169.021 573.829L165.739 574.178L162.407 574.524L159.026 574.863L155.597 575.191L152.123 575.505L148.604 575.8L145.043 576.073L141.442 576.32L137.802 576.537L134.126 576.719L130.418 576.863L126.679 576.965L122.912 577.021L119.122 577.028L115.31 576.982L111.481 576.88L107.638 576.717L103.785 576.492L99.925 576.2L96.0631 575.838L92.2027 575.405L88.3482 574.896L84.5037 574.31L80.6735 573.645L76.862 572.897L73.0735 572.065L69.3124 571.148L65.5833 570.144L61.8903 569.051L58.2381 567.869L54.6309 566.595L51.073 565.231L47.5687 563.775L44.1222 562.227L40.7375 560.587L37.4187 558.855L34.1696 557.031L30.994 555.117L27.8955 553.113L24.8775 551.02L21.9434 548.84L19.0961 546.573L16.3387 544.222L13.6738 541.788L11.104 539.274L8.63156 536.681L6.25852 534.012L3.9867 531.269L1.81769 528.456L-0.247149 525.574L-2.20675 522.627L-4.06031 519.617L-5.80751 516.549L-7.44844 513.425L-8.98357 510.248L-10.4138 507.023L-11.7405 503.753L-12.9654 500.441L-14.0905 497.092L-15.1183 493.709L-16.0516 490.295L-16.8936 486.856L-17.6478 483.393L-18.3178 479.91L-18.9077 476.412L-19.4219 472.901L-19.8646 469.38L-20.2408 465.853L-20.5552 462.322L-20.813 458.789L-21.0192 455.258L-21.1791 451.731L-21.298 448.208L-21.3814 444.693L-21.4346 441.187L-21.4629 437.692L-21.4716 434.207L-21.4661 430.734L-21.4515 427.275L-21.4328 423.828L-21.4148 420.395L-21.4022 416.976L-21.3995 413.569L-21.4109 410.175L-21.4404 406.793L-21.4915 403.422L-21.5677 400.061L-21.6719 396.708L-21.8068 393.363L-21.9746 390.025L-22.1772 386.69L-22.4159 383.358L-22.6919 380.028L-23.0057 376.696L-23.3578 373.362L-23.7482 370.023L-24.1768 366.677L-24.6432 363.324L-25.1468 359.96L-25.6864 356.584L-26.2609 353.195L-26.8689 349.79L-27.5087 346.368L-28.1781 342.927L-28.8752 339.466L-29.5973 335.984L-30.342 332.479L-31.1064 328.949L-31.8875 325.395L-32.682 321.815L-33.4867 318.207L-34.298 314.573L-35.1124 310.91L-35.9259 307.22L-36.7349 303.501L-37.5352 299.753L-38.323 295.977L-39.0941 292.174L-39.8445 288.343L-40.5699 284.485L-41.2662 280.601L-41.9292 276.692L-42.5549 272.759L-43.1392 268.803L-43.678 264.826L-44.1673 260.83L-44.6033 256.816L-44.9821 252.786L-45.3001 248.742L-45.5538 244.686L-45.7398 240.621L-45.8546 236.548L-45.8953 232.47L-45.8589 228.39L-45.7426 224.31L-45.5439 220.233L-45.2602 216.162L-44.8896 212.1L-44.4299 208.048L-43.8795 204.01L-43.2367 199.99L-42.5002 195.988L-41.6689 192.01L-40.742 188.056L-39.7187 184.131L-38.5987 180.237L-37.3817 176.375L-36.0677 172.55L-34.657 168.764L-33.15 165.018L-31.5474 161.316L-29.8499 157.659L-28.0587 154.05L-26.175 150.491L-24.2002 146.983L-22.1356 143.529L-19.9829 140.13L-17.7435 136.788L-15.419 133.506L-13.0113 130.283L-10.522 127.123L-7.95306 124.027L-5.30632 120.995L-2.58376 118.029L0.212528 115.132L3.08047 112.302L6.01788 109.542L9.02253 106.853L12.0921 104.235L15.2243 101.689L18.4167 99.2164L21.6669 96.8165L24.9725 94.4902L28.3308 92.2379L31.7395 90.0595L35.1959 87.9552L38.6974 85.925L42.2415 83.9686L45.8255 82.0858L49.4469 80.2762L53.1031 78.5392L56.7915 76.8742L60.5095 75.2807L64.2545 73.7576L68.024 72.3041L71.8156 70.9192L75.6267 69.6017L79.455 68.3505L83.298 67.1643L87.1535 66.0417L91.0191 64.9813L94.8927 63.9816L98.7722 63.0409L102.655 62.1577L106.54 61.3302L110.425 60.5567L114.308 59.8354L118.186 59.1643L122.06 58.5414L125.925 57.9646L129.782 57.4319L133.629 56.9409L137.463 56.4895L141.284 56.0753L145.09 55.6959L148.88 55.3489L152.654 55.0319L156.409 54.7422L160.145 54.4775L163.862 54.2352L167.558 54.0127L171.232 53.8074L174.885 53.6169L178.516 53.4385L182.124 53.2697L185.709 53.1079L189.272 52.9507L192.812 52.7957L196.329 52.6403L199.823 52.4822L203.295 52.3191L206.745 52.1487L210.174 51.9689L213.582 51.7774L216.97 51.5723L220.339 51.3516L223.689 51.1135L227.022 50.8562L230.338 50.5779L233.639 50.2772L236.925 49.9526L240.199 49.6029L243.461 49.2267L246.713 48.823L249.956 48.3908L253.191 47.9294L256.421 47.4381L259.646 46.9163L262.869 46.3636L266.091 45.7798L269.313 45.1648L272.537 44.5186L275.765 43.8413L278.999 43.1334L282.24 42.3952L285.489 41.6275L288.749 40.831L292.021 40.0065L295.306 39.1552L298.606 38.2783L301.923 37.377L305.257 36.453L308.611 35.5076L311.985 34.5429L315.382 33.5605L318.801 32.5624L322.244 31.5508L325.713 30.5276L329.207 29.4949L332.729 28.4544L336.279 27.408L339.857 26.3575L343.464 25.3045L347.102 24.2508L350.77 23.1979L354.47 22.1475L358.201 21.1013L361.965 20.0607L365.761 19.0275L369.591 18.0032L373.455 16.9894L377.352 15.9877L381.283 14.9999L385.249 14.0276L389.249 13.0724L393.284 12.1362L397.353 11.2208L401.457 10.3278L405.595 9.45926L409.767 8.61693L413.973 7.8028L418.212 7.01878L422.485 6.2669L426.79 5.5492L431.127 4.86768L435.495 4.22449L439.894 3.6217L444.323 3.06147L448.78 2.54593L453.265 2.07724L457.777 1.65759L462.315 1.28913L466.876 0.974006L471.46 0.7144L476.065 0.512401L480.691 0.370144L485.334 0.289687L489.994 0.273039L494.668 0.322205L499.355 0.439097L504.053 0.625576L508.761 0.883486L513.475 1.21454L518.193 1.62043L522.915 2.10272L527.637 2.66294L532.357 3.3025L537.073 4.02273L541.783 4.8249L546.484 5.71012L551.174 6.67943L555.851 7.73378L560.511 8.87401L565.154 10.1008L569.776 11.4148L574.376 12.8166L578.95 14.3064L583.496 15.8847L588.012 17.5515L592.496 19.3069L596.946 21.1508L601.359 23.0832L605.732 25.1037L610.065 27.212L614.354 29.4075L618.598 31.6897L622.794 34.058L626.941 36.5114L631.037 39.0493L635.08 41.6705L639.068 44.3741L643 47.159L646.874 50.0238L650.688 52.9674L654.441 55.9884L658.131 59.0854L661.758 62.2569L665.32 65.5014L668.815 68.8173L672.243 72.203L675.603 75.6568L678.893 79.177L682.114 82.7619L685.263 86.4097L688.34 90.1186L691.346 93.8869L694.277 97.7126L697.136 101.594L699.92 105.529L702.629 109.517L705.264 113.554L707.823 117.64L710.307 121.772L712.714 125.948L715.045 130.168L717.3 134.429L719.479 138.728L721.58 143.066L723.606 147.439L725.554 151.846L727.425 156.285L729.219 160.755L730.935 165.254L732.573 169.78L734.133 174.333L735.614 178.911L737.016 183.512L738.337 188.135L739.578 192.778L740.738 197.44L741.815 202.121L742.809 206.817L743.72 211.529L744.546 216.255L745.286 220.992L745.941 225.741L746.508 230.499L746.987 235.265L747.378 240.037L747.679 244.814L747.89 249.594L748.01 254.376L748.038 259.158L747.975 263.938L747.819 268.715L747.571 273.486L747.229 278.251L746.794 283.007L746.267 287.753L745.646 292.486L744.933 297.205L744.127 301.908L743.23 306.593L742.242 311.258L741.164 315.902L739.997 320.522L738.743 325.116L737.403 329.684L735.978 334.222L734.471 338.73L732.884 343.206L731.219 347.648L729.478 352.055L727.665 356.425L725.78 360.757L723.828 365.049L721.81 369.301L719.73 373.512L717.591 377.68L715.395 381.805L713.145 385.886L710.845 389.922L708.498 393.913L706.106 397.859L703.674 401.758L701.204 405.611L698.7 409.419L696.164 413.18L693.601 416.895L691.013 420.564L688.405 424.189L685.778 427.768L683.137 431.304L680.484 434.796L677.823 438.246L675.157 441.654L672.489 445.022L669.822 448.351L667.158 451.642L664.502 454.896L661.854 458.116L659.219 461.301L656.599 464.455L653.995 467.579L651.411 470.674L648.849 473.743L646.31 476.787L643.796 479.809L641.31 482.809L638.853 485.791L636.426 488.756L634.03 491.707L631.667 494.645L629.338 497.572L627.043 500.491L624.783 503.403L622.559 506.311L620.37 509.216L618.217 512.12L616.1 515.026L614.018 517.935L611.971 520.849L609.959 523.769L607.98 526.698L606.034 529.635L604.119 532.584" fill="#F5F5F5"/>
</svg>
