<svg width="770" height="97" viewBox="0 0 770 97" fill="none" xmlns="http://www.w3.org/2000/svg">
<path d="M58.5 131V81.14C58.5 76.58 57.06 72.92 54.18 70.16C51.42 67.28 47.88 65.84 43.56 65.84C40.56 65.84 37.92 66.5 35.64 67.82C33.36 69.02 31.56 70.82 30.24 73.22C28.92 75.5 28.26 78.14 28.26 81.14L17.64 75.92C17.64 69.08 19.14 63.08 22.14 57.92C25.14 52.76 29.28 48.8 34.56 46.04C39.96 43.16 46.02 41.72 52.74 41.72C59.22 41.72 64.92 43.28 69.84 46.4C74.88 49.4 78.84 53.42 81.72 58.46C84.6 63.5 86.04 69.02 86.04 75.02V131H58.5ZM0.72 131V43.52H28.26V131H0.72ZM145.848 132.98C136.848 132.98 128.688 131 121.368 127.04C114.168 122.96 108.468 117.44 104.268 110.48C100.068 103.52 97.9678 95.72 97.9678 87.08C97.9678 78.44 100.068 70.7 104.268 63.86C108.468 57.02 114.168 51.62 121.368 47.66C128.568 43.58 136.728 41.54 145.848 41.54C154.968 41.54 163.128 43.52 170.328 47.48C177.528 51.44 183.228 56.9 187.428 63.86C191.628 70.7 193.728 78.44 193.728 87.08C193.728 95.72 191.628 103.52 187.428 110.48C183.228 117.44 177.528 122.96 170.328 127.04C163.128 131 154.968 132.98 145.848 132.98ZM145.848 107.96C149.808 107.96 153.288 107.12 156.288 105.44C159.288 103.64 161.568 101.18 163.128 98.06C164.808 94.82 165.648 91.16 165.648 87.08C165.648 83 164.808 79.46 163.128 76.46C161.448 73.34 159.108 70.94 156.108 69.26C153.228 67.46 149.808 66.56 145.848 66.56C142.008 66.56 138.588 67.46 135.588 69.26C132.588 70.94 130.248 73.34 128.568 76.46C126.888 79.58 126.048 83.18 126.048 87.26C126.048 91.22 126.888 94.82 128.568 98.06C130.248 101.18 132.588 103.64 135.588 105.44C138.588 107.12 142.008 107.96 145.848 107.96ZM232.694 131L195.614 43.52H225.314L250.514 116.42H237.554L262.754 43.52H291.914L254.834 131H232.694ZM342.748 132.98C333.268 132.98 324.808 131.06 317.368 127.22C310.048 123.26 304.288 117.8 300.088 110.84C295.888 103.88 293.788 96.02 293.788 87.26C293.788 78.5 295.828 70.7 299.908 63.86C304.108 56.9 309.748 51.44 316.828 47.48C323.908 43.52 331.888 41.54 340.768 41.54C349.408 41.54 357.028 43.4 363.628 47.12C370.228 50.84 375.388 56 379.108 62.6C382.948 69.2 384.868 76.76 384.868 85.28C384.868 86.84 384.748 88.52 384.508 90.32C384.388 92 384.088 93.98 383.608 96.26L308.188 96.44V77.54L371.908 77.36L360.028 85.28C359.908 80.24 359.128 76.1 357.688 72.86C356.248 69.5 354.088 66.98 351.208 65.3C348.448 63.5 345.028 62.6 340.948 62.6C336.628 62.6 332.848 63.62 329.608 65.66C326.488 67.58 324.028 70.34 322.228 73.94C320.548 77.54 319.708 81.92 319.708 87.08C319.708 92.24 320.608 96.68 322.408 100.4C324.328 104 326.968 106.82 330.328 108.86C333.808 110.78 337.888 111.74 342.568 111.74C346.888 111.74 350.788 111.02 354.268 109.58C357.748 108.02 360.808 105.74 363.448 102.74L378.568 117.86C374.248 122.9 369.028 126.68 362.908 129.2C356.788 131.72 350.068 132.98 342.748 132.98ZM398.161 131V43.52H425.701V131H398.161ZM425.701 82.94L414.181 73.94C416.461 63.74 420.301 55.82 425.701 50.18C431.101 44.54 438.601 41.72 448.201 41.72C452.401 41.72 456.061 42.38 459.181 43.7C462.421 44.9 465.241 46.82 467.641 49.46L451.261 70.16C450.061 68.84 448.561 67.82 446.761 67.1C444.961 66.38 442.921 66.02 440.641 66.02C436.081 66.02 432.421 67.46 429.661 70.34C427.021 73.1 425.701 77.3 425.701 82.94ZM509.777 132.8C501.497 132.8 494.117 130.82 487.637 126.86C481.277 122.9 476.237 117.5 472.517 110.66C468.917 103.82 467.117 96.02 467.117 87.26C467.117 78.5 468.917 70.7 472.517 63.86C476.237 57.02 481.277 51.62 487.637 47.66C494.117 43.7 501.497 41.72 509.777 41.72C515.777 41.72 521.177 42.86 525.977 45.14C530.897 47.42 534.917 50.6 538.037 54.68C541.277 58.64 543.077 63.2 543.437 68.36V105.26C543.077 110.42 541.337 115.1 538.217 119.3C535.097 123.38 531.077 126.68 526.157 129.2C521.237 131.6 515.777 132.8 509.777 132.8ZM514.637 107.96C518.597 107.96 522.017 107.12 524.897 105.44C527.777 103.64 530.057 101.18 531.737 98.06C533.417 94.94 534.257 91.34 534.257 87.26C534.257 83.18 533.417 79.64 531.737 76.64C530.177 73.52 527.897 71.06 524.897 69.26C522.017 67.46 518.657 66.56 514.817 66.56C510.977 66.56 507.557 67.46 504.557 69.26C501.677 71.06 499.337 73.52 497.537 76.64C495.857 79.76 495.017 83.3 495.017 87.26C495.017 91.22 495.857 94.76 497.537 97.88C499.217 101 501.557 103.46 504.557 105.26C507.557 107.06 510.917 107.96 514.637 107.96ZM560.177 131H533.177V107.42L537.317 86.18L532.637 64.94V0.319998H560.177V131ZM616.108 132.8C608.068 132.8 600.868 130.82 594.508 126.86C588.268 122.9 583.288 117.5 579.568 110.66C575.968 103.82 574.168 96.02 574.168 87.26C574.168 78.5 575.968 70.7 579.568 63.86C583.288 57.02 588.268 51.62 594.508 47.66C600.868 43.7 608.068 41.72 616.108 41.72C621.988 41.72 627.268 42.86 631.948 45.14C636.748 47.42 640.648 50.6 643.648 54.68C646.648 58.64 648.328 63.2 648.688 68.36V106.16C648.328 111.32 646.648 115.94 643.648 120.02C640.768 123.98 636.928 127.1 632.128 129.38C627.328 131.66 621.988 132.8 616.108 132.8ZM621.688 107.96C627.568 107.96 632.308 106.04 635.908 102.2C639.508 98.24 641.308 93.26 641.308 87.26C641.308 83.18 640.468 79.58 638.788 76.46C637.228 73.34 634.948 70.94 631.948 69.26C629.068 67.46 625.708 66.56 621.868 66.56C618.028 66.56 614.608 67.46 611.608 69.26C608.728 70.94 606.388 73.34 604.588 76.46C602.908 79.58 602.068 83.18 602.068 87.26C602.068 91.22 602.908 94.76 604.588 97.88C606.268 101 608.608 103.46 611.608 105.26C614.608 107.06 617.968 107.96 621.688 107.96ZM640.228 131V107.42L644.368 86.18L640.228 64.94V43.52H667.228V131H640.228ZM744.398 131V81.14C744.398 76.58 742.958 72.92 740.078 70.16C737.318 67.28 733.778 65.84 729.458 65.84C726.458 65.84 723.818 66.5 721.538 67.82C719.258 69.02 717.458 70.82 716.138 73.22C714.818 75.5 714.158 78.14 714.158 81.14L703.538 75.92C703.538 69.08 705.038 63.08 708.038 57.92C711.038 52.76 715.178 48.8 720.458 46.04C725.858 43.16 731.918 41.72 738.638 41.72C745.118 41.72 750.818 43.28 755.738 46.4C760.778 49.4 764.738 53.42 767.618 58.46C770.498 63.5 771.938 69.02 771.938 75.02V131H744.398ZM686.618 131V43.52H714.158V131H686.618Z" fill="#F5F5F5"/>
</svg>
