<svg width="62" height="14" viewBox="0 0 62 14" fill="none" xmlns="http://www.w3.org/2000/svg">
<path d="M22.705 11V9.845H24.729C25.257 9.845 25.719 9.73133 26.115 9.504C26.5183 9.27667 26.83 8.96133 27.05 8.558C27.2773 8.14733 27.391 7.67433 27.391 7.139C27.391 6.611 27.2773 6.14533 27.05 5.742C26.8227 5.33867 26.5073 5.02333 26.104 4.796C25.708 4.56867 25.2497 4.455 24.729 4.455H22.705V3.3H24.762C25.3193 3.3 25.8363 3.399 26.313 3.597C26.7897 3.78767 27.204 4.059 27.556 4.411C27.9153 4.75567 28.194 5.16267 28.392 5.632C28.59 6.094 28.689 6.6 28.689 7.15C28.689 7.69267 28.59 8.19867 28.392 8.668C28.194 9.13733 27.919 9.548 27.567 9.9C27.215 10.2447 26.8007 10.516 26.324 10.714C25.8473 10.9047 25.334 11 24.784 11H22.705ZM21.836 11V3.3H23.101V11H21.836ZM32.2666 11.11C31.7386 11.11 31.2619 10.9927 30.8366 10.758C30.4186 10.516 30.0849 10.186 29.8356 9.768C29.5936 9.35 29.4726 8.88067 29.4726 8.36C29.4726 7.83933 29.5936 7.37367 29.8356 6.963C30.0776 6.545 30.4039 6.215 30.8146 5.973C31.2326 5.731 31.6946 5.61 32.2006 5.61C32.6919 5.61 33.1246 5.72367 33.4986 5.951C33.8799 6.17833 34.1769 6.49 34.3896 6.886C34.6096 7.282 34.7196 7.733 34.7196 8.239C34.7196 8.327 34.7122 8.41867 34.6976 8.514C34.6902 8.602 34.6756 8.701 34.6536 8.811H30.3196V7.821H34.0266L33.5756 8.217C33.5609 7.89433 33.4986 7.623 33.3886 7.403C33.2786 7.183 33.1209 7.01433 32.9156 6.897C32.7176 6.77967 32.4719 6.721 32.1786 6.721C31.8706 6.721 31.6029 6.787 31.3756 6.919C31.1482 7.051 30.9722 7.238 30.8476 7.48C30.7229 7.71467 30.6606 7.997 30.6606 8.327C30.6606 8.657 30.7266 8.94667 30.8586 9.196C30.9906 9.44533 31.1776 9.63967 31.4196 9.779C31.6616 9.911 31.9402 9.977 32.2556 9.977C32.5269 9.977 32.7762 9.92933 33.0036 9.834C33.2382 9.73867 33.4362 9.59933 33.5976 9.416L34.3676 10.197C34.1109 10.4977 33.7992 10.725 33.4326 10.879C33.0659 11.033 32.6772 11.11 32.2666 11.11ZM37.4166 11.11C37.1232 11.11 36.8409 11.0733 36.5696 11C36.2982 10.9193 36.0489 10.8093 35.8216 10.67C35.5942 10.5233 35.3962 10.3473 35.2276 10.142L35.9976 9.372C36.1809 9.58467 36.3899 9.746 36.6246 9.856C36.8666 9.95867 37.1379 10.01 37.4386 10.01C37.7099 10.01 37.9152 9.96967 38.0546 9.889C38.1939 9.80833 38.2636 9.691 38.2636 9.537C38.2636 9.37567 38.1976 9.251 38.0656 9.163C37.9336 9.075 37.7612 9.00167 37.5486 8.943C37.3432 8.877 37.1232 8.811 36.8886 8.745C36.6612 8.679 36.4412 8.591 36.2286 8.481C36.0232 8.36367 35.8546 8.206 35.7226 8.008C35.5906 7.81 35.5246 7.55333 35.5246 7.238C35.5246 6.90067 35.6016 6.611 35.7556 6.369C35.9169 6.127 36.1406 5.94 36.4266 5.808C36.7199 5.676 37.0682 5.61 37.4716 5.61C37.8969 5.61 38.2709 5.687 38.5936 5.841C38.9236 5.98767 39.1986 6.21133 39.4186 6.512L38.6486 7.282C38.4946 7.09133 38.3186 6.94833 38.1206 6.853C37.9226 6.75767 37.6952 6.71 37.4386 6.71C37.1966 6.71 37.0096 6.74667 36.8776 6.82C36.7456 6.89333 36.6796 6.99967 36.6796 7.139C36.6796 7.28567 36.7456 7.39933 36.8776 7.48C37.0096 7.56067 37.1782 7.63033 37.3836 7.689C37.5962 7.74767 37.8162 7.81367 38.0436 7.887C38.2782 7.953 38.4982 8.04833 38.7036 8.173C38.9162 8.29033 39.0886 8.45167 39.2206 8.657C39.3526 8.855 39.4186 9.11533 39.4186 9.438C39.4186 9.95133 39.2389 10.3583 38.8796 10.659C38.5202 10.9597 38.0326 11.11 37.4166 11.11ZM43.7711 11L41.5381 8.305L43.7601 5.72H45.2011L42.6491 8.624L42.7041 7.931L45.3111 11H43.7711ZM40.4161 11V3.08H41.6261V11H40.4161ZM46.4828 11V3.52H47.6928V11H46.4828ZM45.2178 6.82V5.72H48.9578V6.82H45.2178ZM52.1066 11.11C51.5933 11.11 51.1276 10.989 50.7096 10.747C50.2916 10.4977 49.958 10.164 49.7086 9.746C49.4666 9.328 49.3456 8.86233 49.3456 8.349C49.3456 7.83567 49.4666 7.37367 49.7086 6.963C49.958 6.55233 50.2916 6.226 50.7096 5.984C51.1276 5.73467 51.5933 5.61 52.1066 5.61C52.6273 5.61 53.0966 5.731 53.5146 5.973C53.9326 6.215 54.2626 6.545 54.5046 6.963C54.754 7.37367 54.8786 7.83567 54.8786 8.349C54.8786 8.86233 54.754 9.328 54.5046 9.746C54.2626 10.164 53.9326 10.4977 53.5146 10.747C53.0966 10.989 52.6273 11.11 52.1066 11.11ZM52.1066 9.944C52.4073 9.944 52.6713 9.878 52.8986 9.746C53.1333 9.60667 53.313 9.416 53.4376 9.174C53.5696 8.932 53.6356 8.657 53.6356 8.349C53.6356 8.041 53.5696 7.76967 53.4376 7.535C53.3056 7.30033 53.126 7.117 52.8986 6.985C52.6713 6.84567 52.4073 6.776 52.1066 6.776C51.8133 6.776 51.5493 6.84567 51.3146 6.985C51.0873 7.117 50.9076 7.30033 50.7756 7.535C50.651 7.76967 50.5886 8.041 50.5886 8.349C50.5886 8.657 50.651 8.932 50.7756 9.174C50.9076 9.416 51.0873 9.60667 51.3146 9.746C51.5493 9.878 51.8133 9.944 52.1066 9.944ZM58.7119 11.11C58.3085 11.11 57.9492 11.0257 57.6339 10.857C57.3185 10.681 57.0692 10.4427 56.8859 10.142C56.7099 9.84133 56.6219 9.50033 56.6219 9.119V7.601C56.6219 7.21967 56.7135 6.87867 56.8969 6.578C57.0802 6.27733 57.3295 6.04267 57.6449 5.874C57.9602 5.698 58.3159 5.61 58.7119 5.61C59.1885 5.61 59.6175 5.73467 59.9989 5.984C60.3875 6.226 60.6919 6.556 60.9119 6.974C61.1392 7.38467 61.2529 7.85033 61.2529 8.371C61.2529 8.88433 61.1392 9.35 60.9119 9.768C60.6919 10.1787 60.3875 10.505 59.9989 10.747C59.6175 10.989 59.1885 11.11 58.7119 11.11ZM55.8849 13.2V5.72H57.0949V7.139L56.8859 8.426L57.0949 9.702V13.2H55.8849ZM58.5139 9.966C58.8072 9.966 59.0639 9.9 59.2839 9.768C59.5112 9.62867 59.6872 9.438 59.8119 9.196C59.9439 8.954 60.0099 8.67533 60.0099 8.36C60.0099 8.04467 59.9439 7.766 59.8119 7.524C59.6872 7.282 59.5112 7.095 59.2839 6.963C59.0639 6.82367 58.8072 6.754 58.5139 6.754C58.2205 6.754 57.9602 6.82367 57.7329 6.963C57.5055 7.095 57.3295 7.282 57.2049 7.524C57.0802 7.766 57.0179 8.04467 57.0179 8.36C57.0179 8.67533 57.0802 8.954 57.2049 9.196C57.3295 9.438 57.5055 9.62867 57.7329 9.768C57.9602 9.9 58.2205 9.966 58.5139 9.966Z" fill="#2C2D42"/>
<path d="M6 9.25C5.80109 9.25 5.61032 9.32902 5.46967 9.46967C5.32902 9.61032 5.25 9.80109 5.25 10C5.25 10.1989 5.32902 10.3897 5.46967 10.5303C5.61032 10.671 5.80109 10.75 6 10.75C6.19891 10.75 6.38968 10.671 6.53033 10.5303C6.67098 10.3897 6.75 10.1989 6.75 10C6.75 9.80109 6.67098 9.61032 6.53033 9.46967C6.38968 9.32902 6.19891 9.25 6 9.25ZM8.25 10C8.25 9.80109 8.32902 9.61032 8.46967 9.46967C8.61032 9.32902 8.80109 9.25 9 9.25C9.19891 9.25 9.38968 9.32902 9.53033 9.46967C9.67098 9.61032 9.75 9.80109 9.75 10C9.75 10.1989 9.67098 10.3897 9.53033 10.5303C9.38968 10.671 9.19891 10.75 9 10.75C8.80109 10.75 8.61032 10.671 8.46967 10.5303C8.32902 10.3897 8.25 10.1989 8.25 10ZM12 9.25C11.8011 9.25 11.6103 9.32902 11.4697 9.46967C11.329 9.61032 11.25 9.80109 11.25 10C11.25 10.1989 11.329 10.3897 11.4697 10.5303C11.6103 10.671 11.8011 10.75 12 10.75C12.1989 10.75 12.3897 10.671 12.5303 10.5303C12.671 10.3897 12.75 10.1989 12.75 10C12.75 9.80109 12.671 9.61032 12.5303 9.46967C12.3897 9.32902 12.1989 9.25 12 9.25Z" fill="#2C2D42"/>
<path fill-rule="evenodd" clip-rule="evenodd" d="M3 0.25C2.40326 0.25 1.83097 0.487053 1.40901 0.90901C0.987053 1.33097 0.75 1.90326 0.75 2.5V11.5C0.75 12.0967 0.987053 12.669 1.40901 13.091C1.83097 13.5129 2.40326 13.75 3 13.75H15C15.5967 13.75 16.169 13.5129 16.591 13.091C17.0129 12.669 17.25 12.0967 17.25 11.5V2.5C17.25 1.90326 17.0129 1.33097 16.591 0.90901C16.169 0.487053 15.5967 0.25 15 0.25H3ZM15 1.75H3C2.80109 1.75 2.61032 1.82902 2.46967 1.96967C2.32902 2.11032 2.25 2.30109 2.25 2.5V3.25H15.75V2.5C15.75 2.30109 15.671 2.11032 15.5303 1.96967C15.3897 1.82902 15.1989 1.75 15 1.75ZM2.25 11.5V4.75H15.75V11.5C15.75 11.6989 15.671 11.8897 15.5303 12.0303C15.3897 12.171 15.1989 12.25 15 12.25H3C2.80109 12.25 2.61032 12.171 2.46967 12.0303C2.32902 11.8897 2.25 11.6989 2.25 11.5Z" fill="#2C2D42"/>
</svg>
