<svg width="61" height="11" viewBox="0 0 61 11" fill="none" xmlns="http://www.w3.org/2000/svg">
<path d="M21.264 10L24.432 2.3H25.312L28.458 10H27.094L24.63 3.763H25.092L22.606 10H21.264ZM22.826 8.515V7.415H26.907V8.515H22.826ZM33.0136 10V6.953C33.0136 6.601 32.9 6.31133 32.6726 6.084C32.4526 5.85667 32.1666 5.743 31.8146 5.743C31.58 5.743 31.371 5.79433 31.1876 5.897C31.0043 5.99967 30.8613 6.14267 30.7586 6.326C30.656 6.50933 30.6046 6.71833 30.6046 6.953L30.1316 6.689C30.1316 6.28567 30.2196 5.93 30.3956 5.622C30.5716 5.30667 30.8136 5.061 31.1216 4.885C31.437 4.70167 31.789 4.61 32.1776 4.61C32.5736 4.61 32.9256 4.71267 33.2336 4.918C33.5416 5.116 33.7836 5.37633 33.9596 5.699C34.1356 6.01433 34.2236 6.34433 34.2236 6.689V10H33.0136ZM29.3946 10V4.72H30.6046V10H29.3946ZM37.6642 10.11C37.1876 10.11 36.7549 9.989 36.3662 9.747C35.9849 9.505 35.6806 9.17867 35.4532 8.768C35.2332 8.35 35.1232 7.88433 35.1232 7.371C35.1232 6.85033 35.2332 6.38467 35.4532 5.974C35.6806 5.556 35.9849 5.226 36.3662 4.984C36.7549 4.73467 37.1876 4.61 37.6642 4.61C38.0676 4.61 38.4232 4.698 38.7312 4.874C39.0466 5.04267 39.2959 5.27733 39.4792 5.578C39.6626 5.87867 39.7542 6.21967 39.7542 6.601V8.119C39.7542 8.50033 39.6626 8.84133 39.4792 9.142C39.3032 9.44267 39.0576 9.681 38.7422 9.857C38.4269 10.0257 38.0676 10.11 37.6642 10.11ZM37.8622 8.966C38.1629 8.966 38.4232 8.9 38.6432 8.768C38.8706 8.62867 39.0466 8.438 39.1712 8.196C39.2959 7.954 39.3582 7.67533 39.3582 7.36C39.3582 7.04467 39.2959 6.766 39.1712 6.524C39.0466 6.282 38.8706 6.095 38.6432 5.963C38.4232 5.82367 38.1666 5.754 37.8732 5.754C37.5726 5.754 37.3086 5.82367 37.0812 5.963C36.8612 6.095 36.6852 6.282 36.5532 6.524C36.4286 6.766 36.3662 7.04467 36.3662 7.36C36.3662 7.67533 36.4286 7.954 36.5532 8.196C36.6852 8.438 36.8612 8.62867 37.0812 8.768C37.3086 8.9 37.5689 8.966 37.8622 8.966ZM40.4912 10H39.2812V8.581L39.4902 7.294L39.2812 6.018V2.08H40.4912V10ZM41.8341 10V4.72H43.0441V10H41.8341ZM43.0441 7.063L42.6261 6.854C42.6261 6.18667 42.7728 5.64767 43.0661 5.237C43.3668 4.819 43.8178 4.61 44.4191 4.61C44.6831 4.61 44.9214 4.65767 45.1341 4.753C45.3468 4.84833 45.5448 5.00233 45.7281 5.215L44.9361 6.029C44.8408 5.92633 44.7344 5.853 44.6171 5.809C44.4998 5.765 44.3641 5.743 44.2101 5.743C43.8728 5.743 43.5941 5.84933 43.3741 6.062C43.1541 6.27467 43.0441 6.60833 43.0441 7.063ZM48.5724 10.11C48.0591 10.11 47.5934 9.989 47.1754 9.747C46.7574 9.49767 46.4238 9.164 46.1744 8.746C45.9324 8.328 45.8114 7.86233 45.8114 7.349C45.8114 6.83567 45.9324 6.37367 46.1744 5.963C46.4238 5.55233 46.7574 5.226 47.1754 4.984C47.5934 4.73467 48.0591 4.61 48.5724 4.61C49.0931 4.61 49.5624 4.731 49.9804 4.973C50.3984 5.215 50.7284 5.545 50.9704 5.963C51.2198 6.37367 51.3444 6.83567 51.3444 7.349C51.3444 7.86233 51.2198 8.328 50.9704 8.746C50.7284 9.164 50.3984 9.49767 49.9804 9.747C49.5624 9.989 49.0931 10.11 48.5724 10.11ZM48.5724 8.944C48.8731 8.944 49.1371 8.878 49.3644 8.746C49.5991 8.60667 49.7788 8.416 49.9034 8.174C50.0354 7.932 50.1014 7.657 50.1014 7.349C50.1014 7.041 50.0354 6.76967 49.9034 6.535C49.7714 6.30033 49.5918 6.117 49.3644 5.985C49.1371 5.84567 48.8731 5.776 48.5724 5.776C48.2791 5.776 48.0151 5.84567 47.7804 5.985C47.5531 6.117 47.3734 6.30033 47.2414 6.535C47.1168 6.76967 47.0544 7.041 47.0544 7.349C47.0544 7.657 47.1168 7.932 47.2414 8.174C47.3734 8.416 47.5531 8.60667 47.7804 8.746C48.0151 8.878 48.2791 8.944 48.5724 8.944ZM52.3617 10V4.72H53.5717V10H52.3617ZM52.9667 3.752C52.7614 3.752 52.589 3.68233 52.4497 3.543C52.3177 3.40367 52.2517 3.23133 52.2517 3.026C52.2517 2.82067 52.3177 2.64833 52.4497 2.509C52.589 2.36967 52.7614 2.3 52.9667 2.3C53.1794 2.3 53.3517 2.36967 53.4837 2.509C53.6157 2.64833 53.6817 2.82067 53.6817 3.026C53.6817 3.23133 53.6157 3.40367 53.4837 3.543C53.3517 3.68233 53.1794 3.752 52.9667 3.752ZM57.1398 10.11C56.6631 10.11 56.2305 9.989 55.8418 9.747C55.4605 9.505 55.1561 9.17867 54.9288 8.768C54.7088 8.35 54.5988 7.88433 54.5988 7.371C54.5988 6.85033 54.7088 6.38467 54.9288 5.974C55.1561 5.556 55.4605 5.226 55.8418 4.984C56.2305 4.73467 56.6631 4.61 57.1398 4.61C57.5431 4.61 57.8988 4.698 58.2068 4.874C58.5221 5.04267 58.7715 5.27733 58.9548 5.578C59.1381 5.87867 59.2298 6.21967 59.2298 6.601V8.119C59.2298 8.50033 59.1381 8.84133 58.9548 9.142C58.7788 9.44267 58.5331 9.681 58.2178 9.857C57.9025 10.0257 57.5431 10.11 57.1398 10.11ZM57.3378 8.966C57.6385 8.966 57.8988 8.9 58.1188 8.768C58.3461 8.62867 58.5221 8.438 58.6468 8.196C58.7715 7.954 58.8338 7.67533 58.8338 7.36C58.8338 7.04467 58.7715 6.766 58.6468 6.524C58.5221 6.282 58.3461 6.095 58.1188 5.963C57.8988 5.82367 57.6421 5.754 57.3488 5.754C57.0481 5.754 56.7841 5.82367 56.5568 5.963C56.3368 6.095 56.1608 6.282 56.0288 6.524C55.9041 6.766 55.8418 7.04467 55.8418 7.36C55.8418 7.67533 55.9041 7.954 56.0288 8.196C56.1608 8.438 56.3368 8.62867 56.5568 8.768C56.7841 8.9 57.0445 8.966 57.3378 8.966ZM59.9668 10H58.7568V8.581L58.9658 7.294L58.7568 6.018V2.08H59.9668V10Z" fill="#2C2D42"/>
<path d="M0 10C0.115909 8.58781 0.537818 7.2878 1.26573 6.09998C1.99364 4.91215 2.96264 3.96849 4.17273 3.26899L2.74318 0.734967C2.66591 0.616184 2.64659 0.490802 2.68523 0.358822C2.72386 0.226841 2.80758 0.127856 2.93636 0.0618657C3.03939 -0.00412455 3.1553 -0.0173224 3.28409 0.0222718C3.41288 0.0618659 3.51591 0.141054 3.59318 0.259837L5.02273 2.79386C6.1303 2.31873 7.28939 2.08117 8.5 2.08117C9.71061 2.08117 10.8697 2.31873 11.9773 2.79386L13.4068 0.259837C13.4841 0.141054 13.5871 0.0618659 13.7159 0.0222718C13.8447 -0.0173224 13.9606 -0.00412455 14.0636 0.0618657C14.1924 0.127856 14.2761 0.226841 14.3148 0.358822C14.3534 0.490802 14.3341 0.616184 14.2568 0.734967L12.8273 3.26899C14.0379 3.96849 15.0069 4.91215 15.7343 6.09998C16.4617 7.2878 16.8836 8.58781 17 10H0ZM4.63636 7.82232C4.90682 7.82232 5.13555 7.7265 5.32255 7.53487C5.50955 7.34323 5.60279 7.1091 5.60227 6.83247C5.60227 6.55531 5.50877 6.32091 5.32177 6.12928C5.13477 5.93764 4.9063 5.84209 4.63636 5.84261C4.36591 5.84261 4.13718 5.93843 3.95018 6.13007C3.76318 6.3217 3.66994 6.55584 3.67045 6.83247C3.67045 7.10963 3.76395 7.34402 3.95095 7.53566C4.13795 7.72729 4.36642 7.82285 4.63636 7.82232ZM12.3636 7.82232C12.6341 7.82232 12.8628 7.7265 13.0498 7.53487C13.2368 7.34323 13.3301 7.1091 13.3295 6.83247C13.3295 6.55531 13.236 6.32091 13.049 6.12928C12.862 5.93764 12.6336 5.84209 12.3636 5.84261C12.0932 5.84261 11.8645 5.93843 11.6775 6.13007C11.4905 6.3217 11.3972 6.55584 11.3977 6.83247C11.3977 7.10963 11.4912 7.34402 11.6782 7.53566C11.8652 7.72729 12.0937 7.82285 12.3636 7.82232Z" fill="#2C2D42"/>
</svg>
