<svg width="66" height="24" viewBox="0 0 66 24" fill="none" xmlns="http://www.w3.org/2000/svg">
<path d="M10.9212 2C5.335 2 5.68333 4.43467 5.68333 4.43467L5.68975 6.95733H11.0193V7.7145H3.575C3.575 7.7145 0 7.30658 0 12.9716C0 18.6366 3.11942 18.4349 3.11942 18.4349H4.98025V15.8068C4.98025 15.8068 4.88033 12.6718 8.05108 12.6718H13.3366C13.3366 12.6718 16.3066 12.7195 16.3066 9.78617V4.93517C16.3066 4.93517 16.7576 2 10.9212 2ZM7.98233 3.69583C8.51217 3.69583 8.94117 4.12667 8.94117 4.66017C8.94117 5.19275 8.51217 5.62358 7.98233 5.62358C7.45158 5.62358 7.0235 5.19275 7.0235 4.66017C7.0235 4.12667 7.45158 3.69583 7.98233 3.69583Z" fill="#2C2D42"/>
<path d="M11.0798 24C16.6641 24 16.3158 21.5653 16.3158 21.5653L16.3094 19.0427H10.9799V18.2855H18.4259C18.4259 18.2855 22.0009 18.6934 22.0009 13.0284C22.0009 7.36342 18.8806 7.56508 18.8806 7.56508H17.0198V10.1932C17.0198 10.1932 17.1197 13.3282 13.9489 13.3282H8.66436C8.66436 13.3282 5.69436 13.2805 5.69436 16.2138V21.0648C5.69436 21.0648 5.24336 24 11.0798 24ZM14.0186 22.3042C13.4879 22.3042 13.0598 21.8733 13.0598 21.3398C13.0598 20.8073 13.4879 20.3764 14.0186 20.3764C14.5484 20.3764 14.9774 20.8073 14.9774 21.3398C14.9774 21.8733 14.5484 22.3042 14.0186 22.3042Z" fill="#2C2D42"/>
<path d="M55.6507 19.1004C55.832 19.1004 55.6507 19.2454 55.6507 19.1004ZM51.6028 15.8379C52.0741 16.0433 51.2282 15.1129 51.6028 15.8379ZM45.5249 16.1762C45.7062 16.4904 45.5249 16.0312 45.5249 16.1762ZM52.2916 16.6475C51.9653 16.14 52.0499 16.72 52.2916 17.0342C52.8716 17.6021 52.5091 16.72 52.2916 16.6475Z" fill="#2C2D42"/>
<path d="M63.4568 20.0308C62.8163 20.7921 62.2484 19.9463 61.4872 20.1879C60.158 20.1879 61.5959 19.5838 61.5597 18.9796C60.8588 18.4358 60.0613 19.7167 59.6022 20.0671C58.4877 19.8747 57.4031 19.5375 56.3759 19.0642C55.1796 18.5055 54.1104 17.7077 53.2343 16.72C52.2539 15.743 51.4848 14.5749 50.9747 13.2883C50.3225 11.0333 49.981 8.69984 49.9597 6.3525C50.0443 4.78167 51.6997 6.52167 52.3763 5.95375C52.1226 5.14417 50.8176 4.89042 50.0926 4.55208C49.3918 4.55208 49.138 3.8875 48.4009 3.83917C48.4009 2.95708 47.0355 3.44042 46.5159 2.82417C47.0234 1.51917 44.8605 2.82417 45.0297 1.72458C45.7305 0.274584 42.8788 0.516251 44.063 1.79708C45.2109 2.44958 42.9393 2.92083 43.6038 3.35583C43.66 3.465 43.6871 3.58684 43.6824 3.70953C43.6776 3.83222 43.6413 3.95162 43.5769 4.05615C43.5125 4.16067 43.4221 4.24679 43.3147 4.30616C43.2072 4.36553 43.0862 4.39613 42.9634 4.395C42.0693 4.47958 42.1538 5.71208 43.0359 5.05958C44.0147 4.7575 43.2051 5.1925 42.7338 5.27708C42.4852 5.3149 42.2492 5.41189 42.0458 5.55989C41.8424 5.70789 41.6775 5.90258 41.565 6.12756C41.4525 6.35255 41.3957 6.60127 41.3993 6.85279C41.403 7.10431 41.467 7.35128 41.5859 7.57292C42.058 8.92921 42.4613 10.3085 42.7943 11.7054C43.5401 13.823 44.6436 15.7971 46.0568 17.5417C46.7998 18.4743 47.6798 19.2891 48.6668 19.9583C49.573 20.5826 50.5611 21.0786 51.603 21.4325C53.4604 21.9796 55.3825 22.2763 57.3184 22.3146C58.4927 22.3211 59.6653 22.2241 60.8226 22.0246C61.8738 22.1333 62.623 21.2392 63.5534 21.7104C64.1334 21.2029 64.9551 21.4325 65.523 21.0579C65.9097 19.5838 64.0488 20.7317 63.4568 20.0308ZM61.3543 19.1367C61.4147 18.7258 61.0884 19.1367 61.3543 19.1367ZM52.1347 5.845C52.0138 5.845 52.038 5.7 51.9413 5.66375C50.9747 5.21667 52.4126 5.38583 52.1347 5.89333V5.845ZM60.303 19.6079C60.6413 19.3058 59.8801 19.5113 60.303 19.6079ZM56.9076 19.7408C57.1251 19.5717 56.6297 19.7408 56.9076 19.7408ZM54.6359 18.315C54.6359 18.1579 54.4788 18.315 54.6359 18.315ZM54.3701 18.1096C54.2613 17.8317 53.9351 18.1096 54.3701 18.1096ZM53.8626 17.6746C53.8626 17.2638 53.4638 17.7713 53.8626 17.6746ZM46.6126 3.58542C45.9722 3.24708 46.7455 3.98417 46.2018 3.97208C45.9118 3.97208 45.368 3.34375 45.5493 3.02958C45.9118 3.22292 46.5522 3.28333 46.6609 3.63375L46.6126 3.58542ZM45.5009 2.60667H45.368C45.3318 2.28042 46.4193 2.53417 45.5493 2.655L45.5009 2.60667ZM44.2684 1.65208C43.7609 1.4225 44.2684 0.528334 44.8001 0.951251C45.4163 1.83333 43.6522 0.854584 44.2684 1.65208ZM44.8605 2.48583C45.0538 2.23208 44.5343 2.61875 44.8605 2.48583ZM45.4405 3.5975C46.1655 4.15333 45.0297 3.5975 44.5705 3.94792C43.8334 4.02042 45.368 3.53708 45.4405 3.5975ZM45.6459 4.3225C46.0688 4.3225 47.9176 3.48875 47.3013 4.23792C47.8693 4.9025 47.4222 4.685 47.0476 4.23792C47.3859 4.4675 47.1201 5.44625 46.6005 4.78167C46.0809 4.11708 45.9963 4.56417 46.3951 5.03542C46.0084 4.25 44.8968 4.58833 44.0872 4.85417C43.5676 4.80583 45.4526 4.40708 45.6459 4.3225ZM43.3259 6.07458C43.1326 6.55792 43.6159 6.715 44.0751 6.79958C44.8243 6.59417 43.5797 6.46125 44.1476 6.26792C44.4618 6.26792 43.1568 5.95375 44.2443 5.80875C45.3318 5.66375 46.3588 5.18042 47.4584 4.95083C48.3902 4.74596 49.3454 4.66873 50.298 4.72125C50.6605 5.14417 50.0201 5.85708 49.3676 5.92958C48.5835 6.18177 47.7723 6.33996 46.9509 6.40083C45.9843 6.28 45.2955 7.13792 44.3047 7.24667C44.5705 6.76333 44.0872 7.0775 43.5918 7.05333C43.8455 8.04417 41.8155 6.79958 43.0118 6.55792C42.1176 6.24375 42.1055 7.18625 42.2022 7.76625C41.4168 6.66667 42.2868 6.2075 43.3259 6.07458ZM45.5976 7.37958C45.803 7.13792 45.3318 7.31917 45.5976 7.37958ZM44.7276 8.44292C44.7276 8.44292 44.3168 8.34625 44.4859 8.2375C45.6943 8.39458 43.3984 7.83875 44.643 7.97167C45.4405 7.9475 45.1747 8.40667 44.7276 8.44292ZM45.1263 8.64833C45.1263 8.35833 44.9813 8.79333 45.1263 8.64833ZM44.2684 8.64833C44.5222 8.3825 43.7368 8.53958 44.2684 8.64833ZM44.1959 10.3763C44.1113 10.4971 44.0751 10.2796 44.1959 10.3763ZM43.8334 10.1708C43.8334 9.91708 43.1688 9.94125 43.8334 10.1708ZM43.6884 11.7175C43.3743 11.6088 43.3863 11.1133 43.2413 10.8475C42.7822 9.60292 43.7368 11.3308 43.6401 11.7175H43.6884ZM43.9663 9.91708C43.9059 9.325 43.1326 9.82042 43.9663 9.91708ZM43.9663 9.50625H43.8576C42.9393 9.08333 44.4013 9.30083 43.8334 9.50625H43.9663ZM43.8334 8.55167C44.5343 8.11667 43.0963 8.17708 43.8334 8.55167ZM44.0872 8.86583C44.1476 8.47917 43.6763 8.93833 44.0872 8.86583ZM42.5163 8.95042C42.5163 8.6725 42.3713 9.04708 42.5163 8.95042ZM42.6251 8.78125C42.6251 8.455 42.4318 8.78125 42.6251 8.78125ZM42.7218 7.57292C43.1205 7.27083 42.2384 7.45208 42.7218 7.57292ZM43.0359 9.98958C42.8909 9.20417 42.5043 9.86875 43.0359 9.98958ZM43.3984 11.5C43.9059 12.1163 43.7126 12.4546 44.2322 13.2038C43.5555 12.7808 43.4226 11.7538 43.0238 11.0892C42.5284 10.0017 43.3018 11.0771 43.3984 11.5ZM48.3405 19.2092C47.9297 19.1246 47.6518 18.6896 47.3618 18.4117C46.5369 17.8079 45.8832 17.0001 45.4647 16.0675C44.769 15.1792 44.1771 14.2143 43.7005 13.1917C43.2051 12.08 44.0026 13.2763 44.1234 13.6992C44.3772 14.5208 45.1868 14.9921 45.2593 15.5358C46.1534 16.0433 45.6943 16.8892 46.4676 17.1188C46.7938 16.9496 46.8301 18.1338 47.543 17.8921C47.1443 18.0733 47.7001 18.2908 47.9055 18.6292C48.3284 18.5688 49.3193 19.62 48.3405 19.2575V19.2092ZM44.5826 11.5C44.9813 11.3671 44.208 11.4154 44.5826 11.5ZM44.8243 12.0679C45.4526 11.8263 44.1597 11.8988 44.8243 12.0679ZM46.5038 12.6358C46.9872 12.4304 46.6972 13.5783 47.1684 13.7233C48.0868 14.9317 46.528 13.7233 45.9601 13.6388C46.0326 13.6388 45.5009 13.4938 45.7305 13.4454C45.5613 13.2642 45.1868 12.6479 46.0447 13.0588C46.7697 13.3488 46.8301 13.1313 46.5038 12.5875V12.6358ZM48.0868 14.7625C48.0868 14.9438 47.2168 14.9196 48.0143 15.27C47.5551 15.27 47.4101 15.27 48.0143 15.6325C47.7484 15.8379 48.5338 16.0071 48.268 16.3213C49.0655 16.9496 48.123 16.4783 47.7847 16.2246C47.4463 15.9708 46.7576 15.8017 46.8784 15.6204C47.8572 16.1279 47.1322 15.6204 46.6972 15.2579C47.4826 15.4513 46.0809 14.6779 46.818 14.8833C47.0476 14.9438 46.4918 14.4242 47.2168 14.7988C46.5643 14.1704 47.7847 14.6538 48.0868 14.7142V14.7625ZM48.6668 14.5571C48.6668 14.1463 47.9297 14.3879 48.6668 14.5571ZM48.4613 16.9738C48.9326 16.9738 47.7243 16.6596 48.4613 16.9738ZM47.9176 16.7683C48.5459 16.7683 47.0597 16.4904 47.9176 16.7683ZM47.8088 16.9013C47.8088 16.6958 47.543 16.9013 47.8088 16.9013ZM46.5038 15.0283C46.2622 14.6296 45.6338 14.6658 46.5038 15.0283ZM45.8513 14.6054C45.7547 14.2067 45.1505 14.2067 45.8513 14.6054ZM45.8513 15.3908C45.7668 15.0888 45.1626 14.8592 45.8513 15.3908ZM45.6701 13.7717C45.8272 13.53 45.2472 13.7717 45.6701 13.7717ZM48.6668 18.0008C48.6668 17.8317 48.0505 17.8196 48.6668 18.0008ZM48.2197 17.5417H48.0263C47.2047 16.8892 48.4009 17.0825 48.9326 17.3725C50.1047 17.5417 48.6668 17.8438 48.2197 17.5417ZM51.4822 19.5354C51.6755 19.2092 50.6605 19.3421 51.4822 19.5354ZM51.2768 18.9071C51.2163 18.9071 51.1559 18.7742 51.2768 18.9071ZM50.2376 17.2879C49.5247 17.1188 50.4913 17.0583 50.6726 17.2879C51.9051 17.5417 50.6001 17.6021 50.2376 17.2879ZM50.4913 18.75H50.3584L50.2013 18.6775C49.5247 17.9646 51.6393 19.0158 50.4913 18.75ZM50.153 19.5838C50.153 19.4146 49.9718 19.6563 50.153 19.5838ZM50.5034 18.1458L50.3101 18.0854C49.5126 17.5417 51.3251 18.1942 50.5034 18.0854V18.1458ZM50.6968 20.2242C51.0109 19.9221 50.2134 20.0308 50.6968 20.2242ZM50.8176 19.33C51.2526 19.1729 50.1168 19.1608 50.8176 19.33ZM50.9747 18.5929C51.0351 18.3392 50.443 18.5204 50.9747 18.5929ZM50.1047 17.5296C50.6605 17.6021 50.6726 17.8558 50.1047 17.6988C49.9959 17.6988 49.8147 17.6988 49.7663 17.4933C48.848 16.8892 49.8026 17.1913 50.1047 17.4692V17.5296ZM50.0322 19.9463C50.0322 19.6804 49.7905 20.0913 50.0322 19.9463ZM49.6576 19.33C50.1409 19.0158 49.0172 19.33 49.6576 19.33ZM49.5126 19.7529C49.718 19.6563 49.1984 19.6321 49.5126 19.7529ZM49.8751 18.6775C50.1772 18.46 49.2468 18.5083 49.8751 18.6775ZM49.6818 17.9888C49.6093 17.7954 49.3434 17.9888 49.6818 17.9888ZM49.0293 16.8408C50.4551 17.3 48.3405 16.285 49.0293 16.8408ZM48.9568 17.0704C48.9568 17.1429 48.8238 16.9617 48.9568 17.0704ZM53.3672 21.6379C52.292 21.446 51.2502 21.1001 50.2738 20.6108L49.8751 20.3692C49.1863 19.9946 49.2709 19.91 49.9476 20.2846C50.1772 20.4779 51.8688 21.1667 51.0713 20.7075C50.7209 20.6229 48.7755 19.5596 50.0563 20.0188C51.1236 20.5846 52.23 21.0732 53.3672 21.4808C54.3283 21.7089 55.3215 21.7702 56.3034 21.6621C57.0888 22.0608 57.9105 21.5654 58.7201 21.9158C56.925 22.1321 55.1062 22.0381 53.343 21.6379H53.3672ZM51.8568 20.7921C52.0501 20.5142 51.2405 20.6833 51.8568 20.7921ZM52.7388 19.5838C53.4638 19.3058 52.038 19.4508 52.7388 19.5838ZM53.7538 21.1667C54.9622 21.6138 53.0288 21.3117 52.6301 21.0579C51.5184 20.5988 53.5001 21.1667 53.7538 21.1667ZM52.473 19.8375C53.5605 19.8375 51.4943 19.6925 52.473 19.8375ZM54.3097 20.8646C54.3097 20.5021 53.9593 21.1425 54.3097 20.8646ZM54.6601 20.925C54.6601 20.7196 54.4788 20.9975 54.6601 20.925ZM54.9863 20.4658C54.9863 20.1879 54.793 20.7075 54.9863 20.4658ZM55.3609 20.4658C55.9288 19.9946 54.8172 20.6713 55.3609 20.4658ZM55.5301 20.4658C56.1222 19.9583 56.1463 20.2 56.1343 20.6229C55.6147 21.2029 55.9288 20.3813 55.6026 20.6954C55.2763 21.0096 55.373 20.5746 55.5301 20.49V20.4658ZM56.533 21.0096C57.1493 20.3571 55.9288 21.0096 56.533 21.0096ZM56.533 21.2271C56.533 21.07 56.2913 21.2875 56.533 21.2271ZM56.3397 20.8042C57.4755 20.0671 55.8684 20.49 56.3397 20.8042ZM57.0284 20.9129H56.9318C56.8955 20.635 57.5843 20.5867 57.0284 20.9371V20.9129ZM57.2097 21.1425C57.7776 20.6592 56.8472 21.0458 57.2097 21.1425ZM57.6447 21.0217C58.2247 20.5383 57.0284 21.2392 57.6447 21.0217ZM57.9105 21.1546L57.7655 21.2513C57.4876 21.0821 58.6234 20.6713 57.9105 21.1667V21.1546ZM57.3909 20.5142C56.7384 20.2967 55.6993 19.5958 54.9743 20.0671C54.0076 20.6833 55.4697 19.3904 54.6843 19.9704C53.8868 20.925 54.1405 19.3663 53.3672 19.8375C53.3672 19.6925 52.6784 19.6442 53.1618 19.3904C52.7268 19.3904 53.0047 19.33 53.1618 18.9796C52.9684 18.9796 51.9534 18.9796 51.5184 18.6292C51.0351 18.0008 51.603 18.2667 52.0984 18.3513C51.2888 18.4963 52.3884 18.9554 52.9201 18.7017C52.6784 18.5929 52.4005 18.0733 51.7118 17.6142C50.8799 17.1581 50.0203 16.7546 49.138 16.4058C48.123 15.8017 49.3555 16.1883 49.7059 16.5025C50.7209 16.9496 50.3222 15.8863 49.7059 15.6083C49.0534 15.6083 48.8963 14.8954 48.3768 14.9317C49.1863 15.0646 49.7543 14.7263 48.848 13.9046C47.9418 13.0829 49.2105 14.6658 48.7151 14.4363C48.4855 14.1342 48.6547 13.7113 47.9297 13.5542C47.9297 13.8321 47.833 14.255 47.6759 13.675C47.4705 13.675 47.2409 13.9288 47.0718 13.3367C47.2288 12.6479 46.3951 12.4908 46.2622 12.0558C46.9872 12.515 47.3134 12.1525 46.8059 11.6571C46.2984 11.1617 46.4072 11.5242 46.2138 11.6571C45.5009 12.3821 46.1413 10.4488 45.8272 10.9804C45.513 10.9804 45.6943 11.3308 45.7063 11.7658C44.6672 11.5121 45.948 12.3096 46.2501 12.7446C45.7788 12.2613 45.8634 13.1192 45.4647 12.7446C45.3318 12.3821 45.3197 11.8142 44.6551 11.7175C45.4043 11.4517 44.2201 10.9321 44.3168 10.9079C44.7397 10.5213 44.8001 9.98958 45.3076 10.8233C44.6672 10.8233 45.3076 11.8867 45.4526 11.5483C45.4526 10.9804 45.7184 10.34 44.7397 10.1104C44.4497 10.4971 43.9543 9.34917 44.5222 9.59083C44.4497 8.82958 45.4163 9.27667 45.3559 8.95042C45.8634 8.73292 44.7518 8.02 45.3559 7.74208C45.8151 8.03208 46.9993 7.30708 46.2018 7.21042C46.7093 7.21042 47.108 7.42792 47.1563 6.92042C47.5551 7.005 48.6547 7.35542 47.6638 6.81167C48.0987 6.63481 48.5604 6.53268 49.0293 6.50958C49.9838 5.7725 49.7905 7.71792 49.573 8.26167C49.9355 8.00792 49.863 9.3975 49.7422 9.91708C49.9355 9.65125 50.0201 10.3521 49.7422 10.8475C49.7422 10.7629 50.2255 10.6904 49.8872 11.2704C49.6213 10.7025 49.5126 12.4788 49.6818 11.6571C50.1288 10.92 50.0201 11.6571 50.153 11.9471C50.2497 12.6117 50.5397 13.2279 50.6363 13.8321C51.0593 14.255 50.4551 13.965 50.4551 14.545C50.588 14.3758 51.1559 14.7746 51.1438 15.3667C51.1438 14.4242 51.2526 15.1492 51.7118 15.3667C52.0208 15.9992 52.4287 16.5784 52.9201 17.0825C53.3672 17.6021 52.9201 17.2396 53.0893 17.5538C53.3874 17.9653 53.7641 18.3138 54.1975 18.5793C54.6309 18.8447 55.1125 19.0218 55.6147 19.1004C55.8008 19.424 56.0847 19.6801 56.4255 19.8321C56.7664 19.9841 57.1467 20.0241 57.5118 19.9463C56.7868 20.3933 59.5418 20.5142 58.6113 20.7558C58.3334 20.9492 57.8622 20.5142 57.3909 20.5383V20.5142ZM49.5126 16.2004C49.5126 15.9588 49.2226 16.2004 49.5126 16.2004ZM49.9718 16.4663C49.8268 16.1763 49.7543 16.4663 49.9718 16.4663ZM46.818 12.0558C46.9388 11.9471 46.528 11.9713 46.818 12.0558ZM46.1051 12.0558C46.1051 11.645 45.7909 12.0558 46.1051 12.0558ZM45.7426 11.9592C45.7426 11.8263 45.6218 12.0196 45.7426 11.9592ZM59.0343 21.9279C59.4209 21.6621 58.563 21.8433 59.0343 21.9279ZM59.9163 20.6592H59.5538C59.6263 20.1154 61.1609 20.5383 61.7893 20.5504C61.5959 20.9613 60.4238 20.5988 59.9163 20.7075V20.6592ZM62.333 20.6592C62.478 20.2725 62.0068 20.6592 62.333 20.6592ZM63.5413 20.5504C63.5413 20.1879 63.2393 20.7075 63.5413 20.5504ZM64.1213 20.6833C63.493 20.5383 64.4113 20.5383 64.6047 20.5142C65.7405 20.5383 64.6047 20.7075 64.0368 20.7075L64.1213 20.6833Z" fill="#2C2D42"/>
<path d="M46.8662 5.59125C48.0745 5.34958 46.407 5.1925 46.0324 5.59125C46.2499 5.74833 46.5278 5.3375 46.8662 5.59125ZM45.8753 5.74833C46.0928 5.4825 45.8753 5.97792 45.8753 5.74833ZM49.0412 5.16834C49.8508 5.03542 49.1741 4.67292 48.9324 5.28917C49.017 5.45833 49.0653 5.22875 49.0412 5.16834ZM48.292 5.28917C49.4158 5.72417 48.2316 4.08083 48.292 5.28917ZM44.7637 6.41292C44.9066 6.40568 45.0476 6.4484 45.1624 6.53375C46.0687 7.16208 45.0416 5.51875 44.7637 6.41292Z" fill="#2C2D42"/>
<path d="M44.812 5.97792C45.1624 5.72417 45.0053 6.135 44.812 5.97792ZM45.2591 5.99L45.4283 6.135C46.2499 6.2075 45.2953 5.57917 45.2591 5.99ZM51.917 16.3333C52.0258 16.6958 51.917 15.8621 51.917 16.3333ZM46.1412 10.2917C46.3587 10.0742 46.262 10.5092 46.1412 10.2917ZM46.2499 11.0288C46.4795 11.4396 46.2499 10.4125 46.2499 11.0288ZM46.5037 10.4367C46.9024 10.6904 46.1653 9.80833 46.5037 10.4367ZM46.0083 9.44584C46.0928 9.62709 46.2983 9.63917 46.4553 9.6875C48.0503 10.4246 45.3074 8.47917 46.0083 9.44584ZM46.6608 11.1738C47.0353 11.8142 46.8783 10.7267 46.6608 11.1738ZM47.2408 10.9804C47.6878 12.0921 46.9628 10.8354 46.8783 10.4608C46.8886 10.8855 47.0049 11.3009 47.2166 11.6692C47.6274 12.2854 47.4462 11.3308 47.8812 11.9471C47.6395 11.4033 48.002 11.7054 47.9537 11.4638C47.9053 11.2221 46.7453 10.05 47.2408 10.9804ZM47.6758 13.1313C47.8933 13.1313 47.7845 13.5058 47.6758 13.1313ZM46.0687 7.875C46.2016 7.875 46.1412 8.04417 46.0687 7.875ZM46.8783 8.3825C47.2649 8.87792 47.0837 7.9475 46.8783 8.3825ZM45.8028 9.76L45.972 9.94125C47.1683 10.2917 44.7033 8.79334 45.8028 9.76ZM46.6487 9.31292C47.857 9.80833 46.5399 8.98667 46.117 9.07125C46.2499 9.22833 46.5037 9.15583 46.6487 9.31292ZM46.4312 8.78125C46.6487 8.99875 47.422 9.3975 46.8058 8.85375C47.1924 8.78125 46.8058 8.66042 46.5158 8.46708C45.9841 7.6575 46.6003 8.53958 46.4312 8.78125Z" fill="#2C2D42"/>
<path d="M45.658 9.85667C45.0175 9.32501 45.8513 10.1104 45.5855 10.0983C44.9209 9.61501 45.1988 9.96542 45.5855 10.34C45.9842 10.9442 46.3105 9.97751 45.658 9.85667ZM48.2438 10.63C48.3888 10.7629 48.1713 9.80834 48.2438 10.63ZM49.4763 6.40084C49.5609 6.28001 49.4763 6.54584 49.4763 6.40084ZM49.875 12.0679C49.875 12.3217 49.875 11.8504 49.875 12.0679ZM49.5246 10.5938C49.6455 9.65126 49.6213 11.1496 49.5246 10.5938ZM49.6938 10.8596V10.9804C49.9475 10.3642 49.7421 10.0258 49.6938 10.8596ZM49.573 7.59709C49.4038 8.44292 49.2467 8.09251 49.4763 7.46417C49.4159 6.65459 48.9325 7.95959 49.15 8.33417C49.5005 8.90209 49.875 6.93251 49.573 7.59709ZM50.7934 14.8229C50.9505 15.2458 50.9263 14.3154 50.7934 14.8229ZM49.1621 9.65126C49.1621 9.89292 49.1621 9.48209 49.1621 9.65126ZM49.9355 11.7054C50.0684 11.2463 49.9355 12.0196 49.9355 11.7054ZM50.4792 13.9167L50.5638 14.0496C50.733 13.4575 50.1288 13.095 50.4792 13.9167ZM48.5942 13.2883C48.9205 13.5542 48.4371 13.0104 48.5942 13.2883ZM50.0805 12.2613C50.1771 12.6117 50.0805 11.7538 50.0805 12.2613ZM48.8359 8.85376C49.0171 9.25251 48.7755 8.52751 48.8359 8.85376Z" fill="#2C2D42"/>
<path d="M49.0291 9.36125C49.3191 9.77208 48.7149 8.58791 49.0291 9.36125ZM48.9566 10.7508C48.7995 9.5425 48.4491 11.2946 48.9566 11.5846C49.1136 11.9954 49.2587 11.8262 49.3191 11.355C48.9324 11.355 49.4157 10.6058 48.9566 10.7508Z" fill="#2C2D42"/>
</svg>
