<svg width="150" height="24" viewBox="0 0 150 24" fill="none" xmlns="http://www.w3.org/2000/svg">
<path d="M10.9212 2C5.335 2 5.68333 4.43467 5.68333 4.43467L5.68975 6.95733H11.0193V7.7145H3.575C3.575 7.7145 0 7.30658 0 12.9716C0 18.6366 3.11942 18.4349 3.11942 18.4349H4.98025V15.8068C4.98025 15.8068 4.88033 12.6718 8.05108 12.6718H13.3366C13.3366 12.6718 16.3066 12.7195 16.3066 9.78617V4.93517C16.3066 4.93517 16.7576 2 10.9212 2ZM7.98233 3.69583C8.51217 3.69583 8.94117 4.12667 8.94117 4.66017C8.94117 5.19275 8.51217 5.62358 7.98233 5.62358C7.45158 5.62358 7.0235 5.19275 7.0235 4.66017C7.0235 4.12667 7.45158 3.69583 7.98233 3.69583Z" fill="#2C2D42"/>
<path d="M11.0798 24C16.6641 24 16.3158 21.5653 16.3158 21.5653L16.3094 19.0427H10.9799V18.2855H18.4259C18.4259 18.2855 22.0009 18.6934 22.0009 13.0284C22.0009 7.36342 18.8806 7.56508 18.8806 7.56508H17.0198V10.1932C17.0198 10.1932 17.1197 13.3282 13.9489 13.3282H8.66436C8.66436 13.3282 5.69436 13.2805 5.69436 16.2138V21.0648C5.69436 21.0648 5.24336 24 11.0798 24ZM14.0186 22.3042C13.4879 22.3042 13.0598 21.8733 13.0598 21.3398C13.0598 20.8073 13.4879 20.3764 14.0186 20.3764C14.5484 20.3764 14.9774 20.8073 14.9774 21.3398C14.9774 21.8733 14.5484 22.3042 14.0186 22.3042Z" fill="#2C2D42"/>
<path d="M58.8413 11.1421L67.4187 6.57755C67.71 6.40597 68.1112 6.72894 67.9712 7.06579L63.5788 18.4343L58.8413 11.1421ZM48.1463 10.8532L52.4876 4.30915C52.7413 3.89533 53.2101 3.91047 53.4788 4.27382L63.3363 19.0979L48.1463 10.8532ZM43.9276 20C43.5776 20 42.8839 19.6417 42.6864 19.0966L38.0364 7.16168C37.8889 6.74408 38.2101 6.38704 38.6364 6.57628L62.9788 19.5786C62.7925 19.764 62.4125 20.0037 62.0788 20H43.9276Z" fill="#2C2D42"/>
<path d="M105.101 3.00182C102.396 3.0532 99.4616 4.33768 97.1255 6.75986C92.9746 11.061 94.1746 19.2818 95.5841 20.7424C96.7246 21.9227 104.927 23.4479 109.079 19.1452C109.369 18.8435 109.645 18.5285 109.907 18.2013C109.968 17.7727 110.197 17.2325 110.599 16.5777C110.36 16.7038 110.104 16.7909 109.839 16.8361C109.635 17.2251 109.315 17.6435 108.881 18.0912C108.38 18.583 108.021 18.9045 107.804 19.0542C107.624 19.1906 107.408 19.2682 107.185 19.2774C106.689 19.2774 106.457 18.8252 106.485 17.9209C106.174 18.3848 105.883 18.7269 105.618 18.9485C105.391 19.1536 105.101 19.2699 104.8 19.2774C104.525 19.2774 104.29 19.1452 104.097 18.8766C103.943 18.6583 103.849 18.4013 103.824 18.1323C103.514 18.458 103.169 18.7452 102.795 18.9882C102.478 19.1819 102.129 19.2774 101.747 19.2774C101.322 19.2774 100.977 19.1364 100.717 18.8546C100.523 18.6425 100.396 18.3742 100.353 18.0853V18.0912C99.9277 18.4964 99.5537 18.7959 99.2335 18.9882C98.9573 19.1675 98.6399 19.2673 98.3141 19.2774C98.158 19.2816 98.0032 19.2472 97.8625 19.1769C97.7218 19.1067 97.5993 19.0028 97.5052 18.8737C97.2997 18.605 97.1963 18.2424 97.1963 17.7888C97.1963 17.1077 97.3394 16.2915 97.6242 15.3373C97.9089 14.3831 98.2546 13.5023 98.6626 12.6993L99.8554 12.2413C99.8827 12.2307 99.9113 12.2242 99.9404 12.2222C100.03 12.2222 100.105 12.2912 100.163 12.4277C100.22 12.5672 100.249 12.7522 100.249 12.9856C100.249 13.6476 100.102 14.2891 99.8073 14.9086C99.514 15.5281 99.0536 16.1902 98.4274 16.8933C98.4019 17.231 98.3892 17.4629 98.3892 17.5892C98.3892 17.8725 98.4402 18.0956 98.5393 18.2615C98.6399 18.4274 98.7731 18.5096 98.9388 18.5096C99.1332 18.5016 99.3212 18.4353 99.48 18.3188C99.667 18.1954 99.9518 17.9371 100.333 17.551C100.373 16.9374 100.598 16.3796 101.016 15.8746C101.475 15.3167 101.986 15.0393 102.546 15.0393C102.838 15.0393 103.07 15.1186 103.246 15.2742C103.331 15.349 103.399 15.4429 103.445 15.5489C103.491 15.6549 103.513 15.7703 103.509 15.8863C103.509 16.5586 102.821 17.1033 101.442 17.5216C101.567 18.1529 101.895 18.47 102.424 18.47C102.632 18.4696 102.836 18.4102 103.015 18.2982C103.197 18.1866 103.469 17.9415 103.829 17.5686C103.875 17.1987 103.996 16.842 104.196 16.4999C104.454 16.0595 104.785 15.7013 105.189 15.4283C105.593 15.1567 105.95 15.0202 106.26 15.0202C106.651 15.0202 106.926 15.2066 107.082 15.5795L108.041 15.0305H108.304L107.891 16.4559C107.678 17.1723 107.571 17.664 107.571 17.9297C107.571 18.2087 107.666 18.3481 107.857 18.3481C107.979 18.3481 108.113 18.2821 108.261 18.147C108.408 18.012 108.615 17.8064 108.88 17.5305V17.5319C109.082 17.3044 109.268 17.0622 109.435 16.8067C109.166 16.6834 109.031 16.4985 109.031 16.2562C109.031 16.0067 109.113 15.7395 109.278 15.4562C109.442 15.1714 109.667 15.0305 109.956 15.0305C110.2 15.0305 110.322 15.1597 110.322 15.4195C110.322 15.6235 110.251 15.9157 110.111 16.2944C110.631 16.2357 111.084 15.8247 111.472 15.0584L111.795 15.0437C113.295 11.4647 112.968 7.59367 110.619 5.16122C109.176 3.66388 107.208 2.95925 105.101 3.00182ZM111.795 15.0437C111.313 16.1837 110.678 17.2469 109.907 18.2013C109.896 18.2728 109.891 18.3449 109.89 18.4171C109.89 18.6637 109.956 18.8707 110.088 19.0381C110.218 19.204 110.38 19.2876 110.57 19.2876C110.989 19.2876 111.581 18.9001 112.346 18.1323C112.345 18.191 112.342 18.2498 112.342 18.31C112.342 18.5243 112.359 18.8502 112.393 19.2876L113.431 19.0351C113.431 18.7415 113.436 18.5111 113.446 18.3393C113.46 18.1088 113.492 17.8549 113.539 17.5804C113.567 17.4189 113.638 17.2633 113.754 17.1179L114.018 16.8009C114.187 16.5971 114.365 16.4026 114.553 16.2181C114.641 16.1373 114.718 16.0727 114.783 16.0272C114.834 15.9896 114.894 15.9664 114.957 15.9597C115.035 15.9597 115.075 16.0111 115.075 16.1153C115.075 16.2181 115.001 16.4618 114.854 16.8449C114.579 17.5583 114.44 18.0898 114.44 18.4362C114.44 18.6931 114.505 18.8971 114.633 19.0498C114.695 19.1247 114.773 19.1841 114.861 19.2235C114.949 19.2629 115.044 19.2813 115.14 19.2774C115.657 19.2774 116.277 18.8825 117 18.0912V17.5319C116.489 18.1573 116.117 18.4714 115.889 18.4714C115.735 18.4714 115.658 18.3731 115.658 18.1778C115.658 18.031 115.75 17.7139 115.935 17.2236C116.204 16.5102 116.338 15.9964 116.338 15.6852C116.344 15.514 116.288 15.3468 116.18 15.2169C116.131 15.157 116.069 15.1092 116 15.077C115.931 15.0447 115.856 15.0288 115.78 15.0305C115.546 15.0305 115.279 15.1435 114.977 15.3725C114.675 15.6015 114.269 16.0126 113.754 16.6056C113.829 16.221 113.988 15.6925 114.229 15.0202L113.083 15.2492C112.85 15.7566 112.661 16.2842 112.518 16.8258C112.461 17.0548 112.418 17.2897 112.387 17.5305C112.166 17.7613 111.934 17.9817 111.693 18.191C111.6 18.2659 111.486 18.3071 111.369 18.3085C111.321 18.3105 111.274 18.3006 111.231 18.2796C111.188 18.2586 111.151 18.2273 111.122 18.1881C111.057 18.0931 111.026 17.9783 111.032 17.8622C111.032 17.7154 111.058 17.5481 111.111 17.3587C111.165 17.1679 111.281 16.8111 111.464 16.2856L111.9 15.0393L111.795 15.0437ZM87.4142 10.7469C86.1916 10.7234 85.0483 11.133 84.2111 12.0006C82.2957 13.9853 82.6952 17.6185 85.105 20.1141C87.5134 22.6111 92.1175 21.8904 92.935 21.0419C93.5966 20.3578 94.4508 15.4239 92.041 12.9283C90.6853 11.5235 88.9853 10.7777 87.4142 10.7469ZM104.818 11.2724H105.053V11.5807H104.817L104.818 11.2724ZM105.423 11.2724H105.658V12.5422L106.31 11.8743H106.586L106.07 12.4057L106.677 13.4098H106.396L105.89 12.5657L105.658 12.8094V13.4113H105.423V11.2724ZM106.862 11.2724H107.097V11.5807H106.862V11.2724ZM107.544 11.4515H107.779V11.8743H108.023V12.0725H107.779V13.125C107.779 13.1793 107.787 13.216 107.807 13.2351C107.824 13.2542 107.86 13.2645 107.912 13.2645C107.949 13.2662 107.987 13.2612 108.023 13.2498V13.4568C107.959 13.4693 107.895 13.4762 107.83 13.4773C107.754 13.4826 107.679 13.4603 107.617 13.4142C107.592 13.3921 107.573 13.3642 107.56 13.3329C107.547 13.3016 107.542 13.2676 107.544 13.2337V12.074H107.344V11.8743H107.544V11.4515ZM102.498 11.8303C102.612 11.8303 102.71 11.8479 102.791 11.8861C102.872 11.9213 102.932 11.9756 102.975 12.0475C103.017 12.1195 103.039 12.2031 103.039 12.3015H102.789C102.781 12.1385 102.683 12.0563 102.495 12.0563C102.413 12.0516 102.332 12.0726 102.262 12.1165C102.235 12.1352 102.213 12.1608 102.198 12.1909C102.183 12.2209 102.176 12.2545 102.177 12.2883C102.177 12.3397 102.199 12.3837 102.241 12.4175C102.284 12.4527 102.354 12.4821 102.454 12.5055L102.68 12.5628C102.797 12.5839 102.907 12.6371 102.998 12.7169C103.064 12.7845 103.097 12.8755 103.097 12.99C103.099 13.0815 103.073 13.1713 103.023 13.2469C102.969 13.3246 102.894 13.3839 102.808 13.4172C102.706 13.4589 102.597 13.4794 102.488 13.4773C102.295 13.4773 102.148 13.4333 102.05 13.3482C101.952 13.2616 101.901 13.1294 101.895 12.9533H102.145C102.15 13.0076 102.159 13.0487 102.169 13.0766C102.18 13.106 102.196 13.1329 102.217 13.1559C102.279 13.219 102.376 13.2513 102.506 13.2513C102.594 13.2559 102.681 13.2328 102.757 13.1852C102.786 13.167 102.81 13.1414 102.826 13.1108C102.843 13.0802 102.852 13.0456 102.852 13.0105C102.853 12.9858 102.848 12.9611 102.839 12.9383C102.83 12.9155 102.816 12.8951 102.798 12.8784C102.746 12.8373 102.686 12.8097 102.622 12.7977L102.401 12.7419C102.325 12.7227 102.249 12.6981 102.176 12.6685C102.125 12.6466 102.078 12.6164 102.037 12.5789C102.001 12.5455 101.973 12.5038 101.955 12.4571C101.939 12.406 101.931 12.3524 101.932 12.2986C101.932 12.1576 101.983 12.0431 102.087 11.958C102.205 11.8675 102.35 11.8224 102.498 11.8303ZM103.964 11.8303C104.063 11.8286 104.16 11.8501 104.25 11.8934C104.313 11.9234 104.368 11.9666 104.414 12.0201C104.46 12.0737 104.494 12.1365 104.515 12.2046C104.532 12.2648 104.543 12.3269 104.547 12.3896H104.309C104.304 12.296 104.264 12.208 104.199 12.143C104.133 12.0825 104.046 12.051 103.958 12.0549C103.879 12.053 103.802 12.0789 103.739 12.1283C103.672 12.1829 103.623 12.2564 103.597 12.3397C103.563 12.4456 103.546 12.5568 103.549 12.6685C103.546 12.7755 103.563 12.8821 103.598 12.9826C103.627 13.0616 103.676 13.1303 103.741 13.1808C103.806 13.2285 103.884 13.2532 103.964 13.2513C104.165 13.2513 104.285 13.128 104.326 12.8813H104.563C104.556 12.9948 104.524 13.1051 104.471 13.2043C104.423 13.2913 104.351 13.3618 104.264 13.4069C104.169 13.4556 104.064 13.4798 103.958 13.4773C103.835 13.4807 103.714 13.447 103.61 13.3805C103.509 13.3113 103.43 13.2134 103.382 13.0986C103.325 12.9629 103.298 12.8162 103.301 12.6685C103.301 12.5437 103.315 12.4292 103.346 12.3264C103.373 12.229 103.419 12.1382 103.481 12.0593C103.537 11.9853 103.61 11.9264 103.693 11.8875C103.778 11.8478 103.871 11.8292 103.964 11.8303ZM104.818 11.8743H105.053V13.4098H104.817L104.818 11.8743ZM106.862 11.8743H107.097V13.4098H106.862V11.8743ZM99.7081 12.7815C99.5947 12.7815 99.4247 13.081 99.2037 13.6785C98.9842 14.2759 98.7674 15.1127 98.5535 16.1887C98.9516 15.7307 99.2746 15.2169 99.5211 14.6473C99.769 14.0792 99.8923 13.5904 99.8923 13.1808C99.8962 13.0817 99.8788 12.9829 99.8412 12.8916C99.8058 12.8182 99.7619 12.7815 99.7095 12.7815H99.7081ZM106.313 15.4195C106 15.4195 105.702 15.6955 105.422 16.246C105.142 16.7979 105.002 17.3058 105.002 17.7697C105.002 17.9459 105.043 18.0868 105.127 18.1954C105.163 18.2466 105.211 18.2881 105.266 18.3164C105.321 18.3448 105.381 18.3592 105.443 18.3584C105.756 18.3584 106.052 18.0824 106.328 17.529C106.606 16.9756 106.745 16.4647 106.745 15.9979C106.753 15.8463 106.712 15.6962 106.627 15.5722C106.59 15.5227 106.542 15.4831 106.488 15.4565C106.433 15.43 106.373 15.4173 106.313 15.4195ZM102.278 15.4298C102.071 15.4298 101.874 15.5912 101.687 15.9186C101.499 16.2445 101.404 16.6673 101.404 17.1899C102.206 16.9565 102.607 16.5264 102.607 15.8966C102.607 15.5854 102.498 15.4298 102.278 15.4298Z" fill="#2C2D42"/>
<path d="M146.467 0H149.09V18.104H146.467V0ZM142.341 12.94H144.964V15.51H142.341V12.94ZM142.341 5.903H144.964V11.349H142.341V5.903ZM142.341 17.1H144.964V22.546H142.341V17.1ZM134.001 5.896H136.623V24H134L134.001 5.896ZM138.214 8.455H140.837V11.025H138.215L138.214 8.455ZM138.214 12.606H140.837V18.053H138.215L138.214 12.606ZM138.214 1.419H140.837V6.865H138.215L138.214 1.419Z" fill="#2C2D42"/>
</svg>
