<svg width="60" height="29" viewBox="0 0 60 29" fill="none" xmlns="http://www.w3.org/2000/svg">
<path d="M12.7875 0C14.3297 3.69125 7.2578 5.9524 6.6 9.029C5.9983 11.8524 10.7899 15.1644 10.7943 15.1644C10.0628 13.9964 9.5304 13.0114 8.8 11.1898C7.5625 8.11316 16.3405 5.33775 12.7875 0ZM17.4625 5.12469C17.4625 5.12469 11.2794 5.5207 10.9659 9.62134C10.8229 11.4474 12.5983 12.4057 12.65 13.7354C12.694 14.8197 11.5841 15.721 11.5841 15.721C11.5841 15.721 13.574 15.3562 14.1966 13.6997C14.8841 11.8613 12.8568 10.6063 13.0625 9.13275C13.2605 7.72608 17.4625 5.12469 17.4625 5.12469ZM18.975 14.5709C18.326 14.5408 17.5956 14.7851 16.9466 15.2681C18.227 14.9814 19.3193 15.7957 19.3193 16.7328C19.3193 18.8333 16.3625 20.8111 16.3625 20.8111C16.3625 20.8111 20.9341 20.2924 20.9341 16.8376C20.9341 15.412 20.0541 14.6233 18.975 14.5709ZM6.8409 14.6066C5.2459 14.6624 2.0625 14.929 2.0625 16.175C2.0625 17.9096 9.4787 18.0446 14.7818 16.9771C14.7818 16.9771 16.225 15.9575 16.6034 15.5827C13.1274 16.3145 5.1909 16.4282 5.1909 15.7913C5.1909 15.2079 7.7341 14.6066 7.7341 14.6066C7.7341 14.6066 7.3733 14.5887 6.8409 14.6066ZM6.3591 17.8137C5.4868 17.8137 4.1932 18.502 4.1932 19.1724C4.1932 20.5233 10.7602 21.5607 15.6068 19.5907L13.9216 18.5455C10.6348 19.6353 4.5628 19.2728 6.3591 17.8137ZM7.1841 20.8457C5.9939 20.8457 5.225 21.6087 5.225 22.1709C5.225 23.9 12.3365 24.0706 15.1591 22.3104L13.3716 21.1246C11.2662 22.0449 5.9686 22.1798 7.1841 20.8457ZM3.1966 22.4152C1.2551 22.3762 0 23.2686 0 24.0171C0 28.004 19.9034 27.8132 19.9034 23.7382C19.9034 23.0633 19.1169 22.741 18.8375 22.5881C20.4622 26.4835 2.5784 26.179 2.5784 23.8777C2.5784 23.3556 3.9017 22.8324 5.1216 23.0767L4.0909 22.4833C3.79471 22.4395 3.49591 22.4175 3.1966 22.4152ZM22 25.0992C18.975 28.0664 11.319 29.1295 3.6091 27.2956C11.3179 30.5641 21.9615 28.7458 22 25.0992Z" fill="#2C2D42"/>
<path d="M50 8V12C50 12.2652 50.1054 12.5196 50.2929 12.7071C50.4804 12.8946 50.7348 13 51 13H55" stroke="#2C2D42" stroke-width="2" stroke-linecap="round" stroke-linejoin="round"/>
<path d="M50 8V12C50 12.2652 50.1054 12.5196 50.2929 12.7071C50.4804 12.8946 50.7348 13 51 13H55M41 25.25C41 25.664 41.336 26 41.75 26H43C43.2652 26 43.5196 25.8946 43.7071 25.7071C43.8946 25.5196 44 25.2652 44 25V24C44 23.7348 43.8946 23.4804 43.7071 23.2929C43.5196 23.1054 43.2652 23 43 23H42C41.7348 23 41.4804 22.8946 41.2929 22.7071C41.1054 22.5196 41 22.2652 41 22V21C41 20.7348 41.1054 20.4804 41.2929 20.2929C41.4804 20.1054 41.7348 20 42 20H43.25C43.4489 20 43.6397 20.079 43.7803 20.2197C43.921 20.3603 44 20.5511 44 20.75" stroke="#2C2D42" stroke-width="2" stroke-linecap="round" stroke-linejoin="round"/>
<path d="M41 17V10C41 9.46957 41.2107 8.96086 41.5858 8.58579C41.9609 8.21071 42.4696 8 43 8H50L55 13V17M54 20V26H56M50 25L51.5 26.5M49 20C49.5304 20 50.0391 20.2107 50.4142 20.5858C50.7893 20.9609 51 21.4696 51 22V24C51 24.5304 50.7893 25.0391 50.4142 25.4142C50.0391 25.7893 49.5304 26 49 26C48.4696 26 47.9609 25.7893 47.5858 25.4142C47.2107 25.0391 47 24.5304 47 24V22C47 21.4696 47.2107 20.9609 47.5858 20.5858C47.9609 20.2107 48.4696 20 49 20Z" stroke="#2C2D42" stroke-width="2" stroke-linecap="round" stroke-linejoin="round"/>
</svg>
