<svg width="155" height="30" viewBox="0 0 155 30" fill="none" xmlns="http://www.w3.org/2000/svg">
<path d="M40 27C40.1909 24.7405 40.8858 22.6605 42.0847 20.76C43.2836 18.8594 44.8796 17.3496 46.8727 16.2304L44.5182 12.1759C44.3909 11.9859 44.3591 11.7853 44.4227 11.5741C44.4864 11.3629 44.6242 11.2046 44.8364 11.099C45.0061 10.9934 45.197 10.9723 45.4091 11.0356C45.6212 11.099 45.7909 11.2257 45.9182 11.4157L48.2727 15.4702C50.097 14.71 52.0061 14.3299 54 14.3299C55.9939 14.3299 57.903 14.71 59.7273 15.4702L62.0818 11.4157C62.2091 11.2257 62.3788 11.099 62.5909 11.0356C62.803 10.9723 62.9939 10.9934 63.1636 11.099C63.3758 11.2046 63.5136 11.3629 63.5773 11.5741C63.6409 11.7853 63.6091 11.9859 63.4818 12.1759L61.1273 16.2304C63.1212 17.3496 64.7172 18.8594 65.9153 20.76C67.1133 22.6605 67.8082 24.7405 68 27H40ZM47.6364 23.5157C48.0818 23.5157 48.4585 23.3624 48.7665 23.0558C49.0745 22.7492 49.2281 22.3746 49.2273 21.9319C49.2273 21.4885 49.0733 21.1135 48.7653 20.8068C48.4573 20.5002 48.081 20.3473 47.6364 20.3482C47.1909 20.3482 46.8142 20.5015 46.5062 20.8081C46.1982 21.1147 46.0446 21.4893 46.0455 21.9319C46.0455 22.3754 46.1995 22.7504 46.5075 23.0571C46.8155 23.3637 47.1918 23.5166 47.6364 23.5157ZM60.3636 23.5157C60.8091 23.5157 61.1858 23.3624 61.4938 23.0558C61.8018 22.7492 61.9554 22.3746 61.9545 21.9319C61.9545 21.4885 61.8005 21.1135 61.4925 20.8068C61.1845 20.5002 60.8082 20.3473 60.3636 20.3482C59.9182 20.3482 59.5415 20.5015 59.2335 20.8081C58.9255 21.1147 58.7719 21.4893 58.7727 21.9319C58.7727 22.3754 58.9267 22.7504 59.2347 23.0571C59.5427 23.3637 59.919 23.5166 60.3636 23.5157Z" fill="#2C2D42"/>
<path d="M12.7875 0C14.3297 3.69125 7.2578 5.9524 6.6 9.029C5.9983 11.8524 10.7899 15.1644 10.7943 15.1644C10.0628 13.9964 9.5304 13.0114 8.8 11.1898C7.5625 8.11316 16.3405 5.33775 12.7875 0ZM17.4625 5.12469C17.4625 5.12469 11.2794 5.5207 10.9659 9.62134C10.8229 11.4474 12.5983 12.4057 12.65 13.7354C12.694 14.8197 11.5841 15.721 11.5841 15.721C11.5841 15.721 13.574 15.3562 14.1966 13.6997C14.8841 11.8613 12.8568 10.6063 13.0625 9.13275C13.2605 7.72608 17.4625 5.12469 17.4625 5.12469ZM18.975 14.5709C18.326 14.5408 17.5956 14.7851 16.9466 15.2681C18.227 14.9814 19.3193 15.7957 19.3193 16.7328C19.3193 18.8333 16.3625 20.8111 16.3625 20.8111C16.3625 20.8111 20.9341 20.2924 20.9341 16.8376C20.9341 15.412 20.0541 14.6233 18.975 14.5709ZM6.8409 14.6066C5.2459 14.6624 2.0625 14.929 2.0625 16.175C2.0625 17.9096 9.4787 18.0446 14.7818 16.9771C14.7818 16.9771 16.225 15.9575 16.6034 15.5827C13.1274 16.3144 5.1909 16.4282 5.1909 15.7913C5.1909 15.2079 7.7341 14.6066 7.7341 14.6066C7.7341 14.6066 7.3733 14.5887 6.8409 14.6066ZM6.3591 17.8137C5.4868 17.8137 4.1932 18.502 4.1932 19.1724C4.1932 20.5233 10.7602 21.5607 15.6068 19.5907L13.9216 18.5455C10.6348 19.6353 4.5628 19.2728 6.3591 17.8137ZM7.1841 20.8457C5.9939 20.8457 5.225 21.6087 5.225 22.1709C5.225 23.9 12.3365 24.0706 15.1591 22.3104L13.3716 21.1246C11.2662 22.0449 5.9686 22.1798 7.1841 20.8457ZM3.1966 22.4152C1.2551 22.3762 0 23.2686 0 24.0171C0 28.004 19.9034 27.8132 19.9034 23.7382C19.9034 23.0633 19.1169 22.7409 18.8375 22.5881C20.4622 26.4835 2.5784 26.179 2.5784 23.8777C2.5784 23.3556 3.9017 22.8324 5.1216 23.0767L4.0909 22.4833C3.79471 22.4395 3.49591 22.4175 3.1966 22.4152ZM22 25.0992C18.975 28.0664 11.319 29.1295 3.6091 27.2956C11.3179 30.5641 21.9615 28.7458 22 25.0992Z" fill="#2C2D42"/>
<path d="M113.533 11.2025C111.901 9.63826 109.27 9.59459 107.583 11.1039C107.543 11.1401 107.511 11.1836 107.489 11.2318C107.466 11.2801 107.454 11.3321 107.452 11.3849C107.453 11.4911 107.497 11.5928 107.574 11.6688L108.107 12.1977C108.177 12.2641 108.269 12.3042 108.367 12.3108C108.465 12.3174 108.562 12.29 108.64 12.2336C109.063 11.9277 109.579 11.7629 110.109 11.7644C110.595 11.7624 111.071 11.8989 111.476 12.1567C111.88 12.4145 112.196 12.7819 112.383 13.2121C112.569 13.6424 112.618 14.1161 112.523 14.573C112.428 15.0299 112.193 15.4494 111.849 15.7781C108.45 19.0358 103.914 9.90849 93.6184 14.6036C93.4432 14.6821 93.2869 14.7945 93.1594 14.9337C93.0318 15.073 92.9357 15.236 92.8771 15.4126C92.8185 15.5892 92.7987 15.7756 92.8189 15.9599C92.8392 16.1442 92.8991 16.3225 92.9947 16.4835L94.7595 19.4093C95.1427 20.0428 95.9849 20.2649 96.6521 19.9084L96.6957 19.8846L96.6615 19.9084L97.444 19.4871C98.3163 18.9679 99.1404 18.378 99.9074 17.7237C99.9859 17.6592 100.086 17.6237 100.189 17.6237C100.293 17.6237 100.393 17.6592 100.472 17.7237C100.519 17.7593 100.557 17.8046 100.584 17.8564C100.61 17.9081 100.624 17.9649 100.624 18.0226C100.626 18.0787 100.614 18.1344 100.591 18.1859C100.568 18.2375 100.534 18.2837 100.49 18.3215C99.6826 19.0088 98.8135 19.6268 97.8931 20.1685H97.8682L97.0857 20.5869C96.7549 20.7666 96.3808 20.8603 96.0006 20.8588C95.6078 20.8589 95.2219 20.7604 94.8811 20.5732C94.5404 20.3861 94.2566 20.1167 94.0581 19.7919L92.3899 17.0274C89.1847 19.1972 87.2391 23.3782 88.2837 28.6832C88.3022 28.7718 88.352 28.8517 88.4247 28.9094C88.4973 28.967 88.5884 28.999 88.6828 29H90.5848C90.6836 29 90.7791 28.9653 90.8531 28.9026C90.9272 28.8399 90.9748 28.7533 90.9869 28.6593C91.1623 27.3248 92.3462 26.324 93.7495 26.324C95.1526 26.324 96.3366 27.3248 96.5119 28.6593C96.5248 28.7536 96.573 28.8401 96.6476 28.9028C96.7222 28.9655 96.818 29 96.9172 29H98.7692C98.8681 29 98.9636 28.9654 99.0376 28.9026C99.1117 28.8399 99.1593 28.7533 99.1715 28.6593C99.3525 27.3284 100.535 26.3328 101.936 26.3328C103.336 26.3328 104.519 27.3284 104.7 28.6592C104.712 28.7532 104.759 28.8398 104.833 28.9025C104.907 28.9653 105.003 28.9999 105.102 28.9999H106.932C107.153 28.9999 107.334 28.8297 107.337 28.6175C107.381 26.1458 108.076 23.3066 110.059 21.8839C116.928 16.9586 115.123 12.7357 113.533 11.2025ZM106.527 18.6533L105.217 18.0226C105.216 17.8876 105.252 17.7547 105.32 17.6367C105.389 17.5186 105.488 17.4194 105.607 17.3484C105.727 17.2775 105.864 17.2372 106.005 17.2314C106.145 17.2256 106.285 17.2545 106.411 17.3153C106.537 17.3761 106.644 17.4669 106.723 17.5788C106.802 17.6908 106.849 17.8202 106.861 17.9548C106.872 18.0893 106.847 18.2245 106.789 18.3473C106.731 18.4701 106.64 18.5765 106.527 18.6562V18.6533Z" fill="#2C2D42"/>
<path d="M155 25.754L147.7 29.805C147.2 30.065 146.7 30.065 146.2 29.805L139 25.754L152.05 12.601L152.4 12.501C152.7 12.501 152.87 12.6311 152.9 12.9011L155 25.754ZM144.35 12.8011L139.8 20.3528L141.7 8.40009C141.73 8.13003 141.9 8 142.2 8C142.4 8 142.53 8.06001 142.6 8.25006L144.75 12.201L144.35 12.8011ZM148.85 14.0614L139.3 23.6536L146.55 11.3508C146.65 11.1507 146.8 11.0607 147 11.0607C147.2 11.0607 147.33 11.1507 147.4 11.3508L148.85 14.0614Z" fill="#2C2D42"/>
</svg>
