<svg width="21" height="21" viewBox="0 0 21 21" fill="none" xmlns="http://www.w3.org/2000/svg">
<rect x="1.23535" y="6.17645" width="18.5294" height="8.64706" fill="black"/>
<path d="M18.75 0H2.25C1.00781 0 0 1.00781 0 2.25V18.75C0 19.9922 1.00781 21 2.25 21H18.75C19.9922 21 21 19.9922 21 18.75V2.25C21 1.00781 19.9922 0 18.75 0ZM0.998437 9.24375H0.984375C0.989062 9.23906 0.99375 9.22969 0.998437 9.225V9.24375ZM4.54688 13.4906H3V7.5H4.54688V13.4906ZM9.85312 13.4906H8.50781V9.44062L7.96406 13.4906H6.99844L6.42656 9.52969V13.4906H5.06719V7.5H7.07344C7.22812 8.42813 7.35469 9.37031 7.48125 10.3078L7.8375 7.5H9.85312V13.4906ZM10.3875 13.4906V7.5H11.5406C12.3656 7.5 13.6359 7.425 13.8375 8.47969C13.9172 8.83594 13.9031 9.24375 13.9031 9.62344C13.9031 13.7719 14.4234 13.4953 10.3875 13.4906ZM17.9297 12.1219C17.9297 12.8578 17.8172 13.5703 16.8891 13.5703C16.4672 13.5703 16.1766 13.4297 15.9094 13.1109L15.8203 13.4906H14.4234V7.5H15.9094V9.45469C16.1906 9.15 16.4719 9.02344 16.8891 9.02344C17.8922 9.02344 17.9297 9.62344 17.9297 10.4344V12.1219ZM12.4219 9.27656C12.4219 8.82187 12.4969 8.52656 11.9391 8.52656V12.45C12.5109 12.4641 12.4219 12.0422 12.4219 11.5875V9.27656ZM16.4297 10.5C16.4297 10.2469 16.4812 9.90469 16.1391 9.90469C15.8578 9.90469 15.9094 10.3219 15.9094 10.5C15.9094 10.5281 15.8578 12.3563 15.9609 12.5953C15.9984 12.6703 16.0641 12.7078 16.1391 12.7078C16.5047 12.7078 16.4297 12.2859 16.4297 12.0328V10.5Z" fill="#F5C518"/>
</svg>
