<svg width="19" height="21" viewBox="0 0 19 21" fill="none" xmlns="http://www.w3.org/2000/svg">
<path fill-rule="evenodd" clip-rule="evenodd" d="M15.3823 3.82021C15.4242 3.78895 15.4622 3.75624 15.504 3.73026C15.9639 3.45272 16.4261 3.18046 16.8821 2.89715C16.9248 2.86415 16.9773 2.84625 17.0312 2.84625C17.0852 2.84625 17.1376 2.86415 17.1803 2.89715C17.4286 3.05492 17.684 3.19922 17.9384 3.34786C18.0135 3.39067 18.062 3.43829 18.0616 3.53786C18.0577 4.12854 18.0582 4.71922 18.0568 5.30991C18.0541 5.33165 18.0488 5.35296 18.0409 5.3734C17.8884 5.33925 15.5973 4.00348 15.3823 3.82021Z" fill="#A41923"/>
<path fill-rule="evenodd" clip-rule="evenodd" d="M13.5761 9.11812C13.6146 9.39615 13.7954 9.90795 13.9013 10.0455L14.4482 9.63184C14.1389 9.45002 13.8666 9.29033 13.5761 9.11812ZM12.8065 8.66116L11.9508 8.1561C11.9387 8.1686 11.9262 8.18063 11.9132 8.19265C12.0118 8.48415 12.1105 8.77564 12.2211 9.10177C12.4193 8.95458 12.5982 8.81941 12.806 8.66212L12.8065 8.66116ZM14.5482 5.97471C14.5482 5.69235 14.5449 5.46868 14.5482 5.24549C14.5511 5.14352 14.4881 5.10119 14.4169 5.05982C14.1761 4.91903 13.9356 4.7776 13.6954 4.63554L13.0884 4.27959C12.8594 4.41668 12.6425 4.54848 12.3894 4.70144C13.1206 5.13293 13.8118 5.54083 14.5477 5.97567L14.5482 5.97471ZM15.3828 3.7981C15.5978 3.98137 17.8889 5.3186 18.0413 5.35228C18.049 5.33178 18.0544 5.31047 18.0572 5.28878C18.0572 4.69808 18.0572 4.10691 18.062 3.51623C18.062 3.41714 18.0139 3.36904 17.9389 3.32623C17.6844 3.17759 17.4285 3.03329 17.1808 2.87552C17.1381 2.84252 17.0857 2.82462 17.0317 2.82462C16.9777 2.82462 16.9253 2.84252 16.8826 2.87552C16.4266 3.15931 15.9643 3.43109 15.5045 3.70863C15.4622 3.73509 15.4242 3.7678 15.3823 3.79907L15.3828 3.7981ZM9.78765 1.1559C9.77831 1.19826 9.77153 1.24115 9.76744 1.28433C9.76744 1.86155 9.76744 2.43539 9.76408 3.01116C9.76408 3.12468 9.81218 3.18288 9.90357 3.23724C10.425 3.53883 10.9426 3.84861 11.4611 4.15453C11.5934 4.23245 11.7261 4.30845 11.8627 4.38734C12.21 4.17858 12.5515 3.97656 12.8892 3.76876C12.9463 3.72851 13.0141 3.70635 13.0839 3.70514C13.1538 3.70395 13.2224 3.72376 13.2808 3.76202C13.8169 4.08078 14.3547 4.39792 14.8941 4.71347C14.9566 4.74654 15.008 4.79741 15.0416 4.85967C15.0753 4.92191 15.0897 4.99272 15.0831 5.06319C15.0778 5.29503 15.0807 5.5264 15.0831 5.75825C15.0831 5.81405 15.0942 5.86936 15.1038 5.95498C15.5752 5.67455 16.023 5.40903 16.4954 5.11466L9.78765 1.1559ZM0.942306 8.04258L9.20851 3.16364C9.24747 2.83175 9.23448 1.3483 9.18975 1.17754C9.1301 1.20833 9.0719 1.2343 9.01658 1.26749C6.37775 2.82405 3.73827 4.38061 1.09815 5.93719C0.975496 6.00934 0.92018 6.08149 0.923066 6.23397C0.932205 6.76308 0.926433 7.29557 0.927395 7.8266C0.926914 7.8824 0.935091 7.94012 0.942306 8.04258ZM0.926433 14.3703C1.03226 14.315 1.09671 14.2842 1.15828 14.2491C1.40552 14.1048 1.65132 13.9576 1.89808 13.8114C4.27813 12.4071 6.65818 11.0038 9.03823 9.60154C9.17436 9.52121 9.23352 9.43752 9.23063 9.27157C9.22149 8.5842 9.22775 7.89587 9.22679 7.20802C9.22679 7.13731 9.21861 7.06612 9.21332 6.96751C9.11712 7.01802 9.04881 7.05362 8.98099 7.09306L7.21808 8.13589C5.19143 9.33006 3.16474 10.5233 1.13808 11.7156C0.976458 11.8118 0.919218 11.9142 0.922585 12.1004C0.934129 12.7579 0.926914 13.4165 0.926914 14.0726C0.926433 14.1567 0.926433 14.2385 0.926433 14.3703ZM0.926433 11.2009C1.02264 11.1528 1.08228 11.1259 1.13664 11.0936C3.78188 9.53324 6.42744 7.97346 9.07334 6.41435C9.19215 6.3446 9.23015 6.26428 9.22919 6.13007C9.2239 5.4201 9.22679 4.70914 9.22631 3.99964C9.22631 3.94288 9.2162 3.88709 9.20947 3.80724C9.13299 3.84572 9.07382 3.87121 9.01706 3.90344C8.79484 4.03283 8.57309 4.16511 8.35134 4.29547C5.94147 5.71799 3.53015 7.13938 1.1174 8.55967C0.969724 8.64577 0.916813 8.73904 0.919699 8.91225C0.929319 9.5924 0.923547 10.273 0.923547 10.9527L0.926433 11.2009ZM9.76744 3.79473V4.06362C9.76744 4.73704 9.77466 5.41048 9.76215 6.0839C9.75927 6.2686 9.82661 6.36144 9.97572 6.44946C11.5791 7.38936 13.1817 8.33311 14.7834 9.2807C14.8485 9.31476 14.9108 9.35401 14.9696 9.39807C15.1428 9.54238 15.1048 9.76989 14.9018 9.86658C14.7772 9.92536 14.6577 9.99419 14.5444 10.0725C14.3452 10.2119 14.1552 10.3649 13.958 10.5054C13.7406 10.6636 13.641 10.6323 13.5516 10.376C13.4102 9.96759 13.2735 9.55825 13.1331 9.14843C13.1148 9.09648 13.085 9.04838 13.0585 8.98729C12.9758 9.04501 12.9094 9.0907 12.845 9.13881C12.6564 9.28022 12.4712 9.42741 12.2788 9.56258C12.1129 9.68139 11.9965 9.6405 11.9205 9.4481C11.907 9.41443 11.8978 9.37739 11.8863 9.34179C11.742 8.91802 11.5977 8.49468 11.4582 8.07048C11.4314 7.97033 11.366 7.8849 11.2764 7.83286C10.8242 7.57215 10.3764 7.30374 9.92618 7.04063C9.87971 7.01788 9.83147 6.99907 9.78187 6.98435C9.77706 7.06276 9.77033 7.1224 9.77033 7.18012C9.77033 7.88336 9.77418 8.58708 9.766 9.28984C9.76033 9.35132 9.7737 9.41308 9.80434 9.46666C9.83498 9.5203 9.8814 9.56316 9.93724 9.58951C12.5735 11.1403 15.208 12.6932 17.8408 14.2481C17.9014 14.2847 17.9663 14.314 18.0437 14.3544C18.0527 14.3033 18.0589 14.2518 18.0625 14.2C18.0625 11.5297 18.0636 8.85934 18.0659 6.18876C18.0701 6.14133 18.0598 6.09376 18.0362 6.05239C18.0127 6.01102 17.977 5.97788 17.9341 5.95739C17.6907 5.8203 17.4473 5.68321 17.2126 5.53121C17.0846 5.448 16.9874 5.44896 16.8561 5.53121C16.2751 5.89101 15.6815 6.23157 15.1028 6.59665C14.9018 6.72268 14.745 6.72412 14.5396 6.60146C13.0369 5.7039 11.5284 4.81787 10.0214 3.92942C9.94927 3.88949 9.87856 3.85486 9.76744 3.79473ZM18.9962 9.05174C18.9962 10.9368 18.9913 12.821 19 14.7056C19 15.0851 18.8605 15.3309 18.5382 15.5233C15.6666 17.209 12.7984 18.9006 9.93388 20.598C9.70636 20.7331 9.48076 20.8067 9.22775 20.6894C9.16834 20.6604 9.11057 20.6283 9.05458 20.5932C6.16081 18.8852 3.26736 17.1776 0.374229 15.4704C0.122179 15.3217 -0.000479603 15.1139 1.40917e-06 14.8128C0.00256679 11.8594 0.00256679 8.90532 1.40917e-06 5.95065C1.40917e-06 5.63271 0.125545 5.41192 0.392026 5.25511C3.29157 3.54557 6.19063 1.83493 9.08922 0.123165C9.37205 -0.0442274 9.63228 -0.039417 9.91367 0.127975C11.4678 1.05152 13.0287 1.96448 14.5795 2.89043C14.7459 2.98952 14.8681 2.99962 15.0331 2.89043C15.5483 2.56238 16.0798 2.26223 16.5973 1.93947C16.8859 1.76101 17.1539 1.75428 17.442 1.93129C17.8233 2.16602 18.2092 2.39386 18.5998 2.61481C18.8711 2.76825 18.9966 2.99096 18.9962 3.30699C18.9939 5.2224 18.9939 7.13731 18.9962 9.05174Z" fill="#0F1029"/>
<path fill-rule="evenodd" clip-rule="evenodd" d="M9.76729 3.79474C9.87937 3.85487 9.95008 3.89095 10.0184 3.92991C11.5249 4.81835 13.0339 5.70438 14.5361 6.60147C14.7419 6.72412 14.8983 6.72316 15.0993 6.59666C15.6765 6.23205 16.2715 5.89245 16.8531 5.53169C16.9839 5.44992 17.0816 5.44896 17.2095 5.53169C17.4438 5.68321 17.6881 5.8203 17.931 5.95787C17.9736 5.9786 18.009 6.01179 18.0324 6.05297C18.0558 6.09419 18.0663 6.14152 18.0624 6.18876C18.0595 8.85963 18.0585 11.5301 18.0595 14.2C18.0557 14.2518 18.0493 14.3033 18.0402 14.3544C17.9623 14.314 17.8959 14.2847 17.8377 14.2486C15.2034 12.6949 12.5689 11.142 9.9342 9.59C9.81107 9.51785 9.76104 9.43896 9.76296 9.29033C9.77114 8.58757 9.76633 7.88385 9.76729 7.18061C9.76729 7.1224 9.77355 7.06324 9.77884 6.98483C9.82838 6.9995 9.87663 7.01812 9.92314 7.04063C10.3734 7.30374 10.8207 7.57359 11.2729 7.83286C11.3631 7.88577 11.4286 7.97221 11.4552 8.07336C11.5951 8.4981 11.7404 8.92043 11.8828 9.34468C11.8948 9.38028 11.904 9.41683 11.9169 9.45098C11.9934 9.64339 12.1093 9.68379 12.2758 9.56546C12.4682 9.42838 12.6534 9.28311 12.8419 9.14169C12.9064 9.09359 12.9723 9.04838 13.055 8.98969C13.0827 9.04222 13.1075 9.09614 13.1296 9.15131C13.27 9.56017 13.4066 9.96903 13.5485 10.3784C13.638 10.6352 13.7385 10.667 13.955 10.5083C14.1517 10.3639 14.3422 10.2119 14.5409 10.0729C14.6541 9.99453 14.7736 9.9257 14.8983 9.86706C15.1017 9.77086 15.1388 9.5419 14.9666 9.39807C14.9071 9.35493 14.8447 9.31587 14.7799 9.28119C13.1765 8.3358 11.5732 7.39191 9.9698 6.44947C9.82117 6.36192 9.75334 6.26861 9.75671 6.08438C9.76874 5.41096 9.76152 4.73752 9.76152 4.06411C9.76729 3.99003 9.76729 3.91595 9.76729 3.79474Z" fill="#FF3034"/>
<path fill-rule="evenodd" clip-rule="evenodd" d="M0.926449 11.2009V10.9527C0.926449 10.2735 0.932702 9.59236 0.9226 8.91268C0.919714 8.74 0.970702 8.64669 1.1203 8.5601C3.53402 7.14145 5.94533 5.72006 8.35424 4.29594C8.57599 4.16558 8.79773 4.0333 9.01996 3.90391C9.07432 3.87216 9.13396 3.84667 9.21237 3.80771C9.22006 3.88611 9.2292 3.94191 9.2292 4.00011C9.2292 4.71009 9.2292 5.42053 9.23209 6.13051C9.23209 6.26471 9.19505 6.34504 9.07624 6.41431C6.42875 7.97182 3.78318 9.53175 1.13954 11.0941C1.0823 11.1258 1.02361 11.1508 0.926449 11.2009Z" fill="#FF3034"/>
<path fill-rule="evenodd" clip-rule="evenodd" d="M0.926462 14.3703V14.0764C0.926462 13.4189 0.933682 12.7604 0.922138 12.1043C0.91877 11.9157 0.975525 11.8156 1.13763 11.7194C3.1659 10.5304 5.19272 9.33603 7.21812 8.13638C7.80591 7.78846 8.39419 7.44098 8.98295 7.09403C9.05125 7.05458 9.12052 7.01995 9.21528 6.96896C9.22105 7.06517 9.22875 7.13732 9.22875 7.20947C9.22875 7.89684 9.22346 8.58517 9.23308 9.27253C9.23548 9.438 9.17632 9.52218 9.04067 9.60203C6.65932 11.0021 4.27912 12.4057 1.90004 13.8128C1.65376 13.959 1.40732 14.1048 1.16072 14.2501C1.09626 14.2842 1.03228 14.3131 0.926462 14.3703Z" fill="#FF3034"/>
<path fill-rule="evenodd" clip-rule="evenodd" d="M0.942336 8.0426C0.935121 7.93966 0.927425 7.88242 0.927425 7.82615C0.927425 7.29703 0.932235 6.76359 0.923096 6.23351C0.923096 6.08296 0.976488 6.00888 1.09818 5.93673C3.73862 4.38208 6.37812 2.82552 9.01662 1.26704C9.07193 1.23433 9.13062 1.2074 9.18978 1.17709C9.23452 1.34833 9.2475 2.83178 9.20854 3.16368C6.47158 4.7794 3.72547 6.40042 0.942336 8.0426Z" fill="#A41923"/>
<path fill-rule="evenodd" clip-rule="evenodd" d="M9.78773 1.15588L16.4959 5.1146C16.0236 5.40898 15.5758 5.6745 15.1039 5.95493C15.0943 5.86883 15.0842 5.81351 15.0832 5.7582C15.0832 5.52635 15.0784 5.29498 15.0832 5.06265C15.0897 4.99228 15.0752 4.92157 15.0415 4.85943C15.0079 4.79729 14.9566 4.74649 14.8942 4.71345C14.3554 4.39855 13.8177 4.0814 13.2808 3.76201C13.2225 3.72343 13.1539 3.70342 13.084 3.70462C13.0141 3.70582 12.9462 3.72818 12.8893 3.76874C12.5526 3.97654 12.2106 4.17857 11.8628 4.38733C11.7262 4.30844 11.593 4.23244 11.4612 4.15452C10.9426 3.84859 10.4251 3.53882 9.90366 3.23723C9.81178 3.18287 9.76368 3.12467 9.76416 3.01115C9.76897 2.43393 9.76657 1.85961 9.76753 1.28431C9.77162 1.24113 9.77835 1.19823 9.78773 1.15588Z" fill="#A41923"/>
<path fill-rule="evenodd" clip-rule="evenodd" d="M14.5478 5.9756L12.3905 4.70237C12.6435 4.54941 12.8605 4.41761 13.0894 4.28052L13.6965 4.63647C13.937 4.77837 14.1775 4.91977 14.418 5.06071C14.4892 5.10256 14.5522 5.14441 14.5493 5.24638C14.5445 5.46957 14.5478 5.69324 14.5478 5.9756Z" fill="white"/>
<path fill-rule="evenodd" clip-rule="evenodd" d="M12.8061 8.66212C12.5988 8.81941 12.4213 8.95458 12.2217 9.10369C12.111 8.77708 12.0129 8.48607 11.9143 8.19458L11.9513 8.15802L12.8061 8.66212Z" fill="white"/>
<path fill-rule="evenodd" clip-rule="evenodd" d="M13.576 9.11813C13.8647 9.28937 14.1388 9.44907 14.4481 9.63089C14.2447 9.78434 14.0729 9.91517 13.9012 10.045C13.7959 9.90892 13.6155 9.3976 13.576 9.11813Z" fill="white"/>
<path d="M1.29968 14.9658L9.46054 9.93344L17.7936 14.9658L9.46054 19.6129L1.29968 14.9658Z" fill="#D41718"/>
</svg>
