<svg width="62" height="31" viewBox="0 0 62 31" fill="none" xmlns="http://www.w3.org/2000/svg">
<path fill-rule="evenodd" clip-rule="evenodd" d="M8.19197 5.35201V12H11.336V4.65601C11.336 3.87201 11.144 3.14401 10.76 2.47201C10.376 1.78401 9.84797 1.23201 9.17597 0.816011C8.50397 0.384011 7.74397 0.168011 6.89597 0.168011C6.01597 0.168011 5.22397 0.360011 4.51997 0.744011C4.15042 0.950269 3.82242 1.20038 3.53597 1.49434V0.408011H0.391968V12H3.53597V5.35201C3.53597 4.88801 3.63197 4.48001 3.82397 4.12801C4.03197 3.77601 4.31197 3.50401 4.66397 3.31201C5.01597 3.12001 5.41597 3.02401 5.86397 3.02401C6.55197 3.02401 7.11197 3.24001 7.54397 3.67201C7.97597 4.10401 8.19197 4.66401 8.19197 5.35201ZM16.1485 11.448C17.0925 11.976 18.1485 12.24 19.3165 12.24C20.4845 12.24 21.5325 11.976 22.4605 11.448C23.4045 10.904 24.1485 10.176 24.6925 9.26401C25.2365 8.33601 25.5085 7.30401 25.5085 6.16801C25.5085 5.03201 25.2365 4.01601 24.6925 3.12001C24.1485 2.20801 23.4045 1.48801 22.4605 0.960011C21.5325 0.416011 20.4765 0.144012 19.2925 0.144012C18.1405 0.144012 17.0925 0.416011 16.1485 0.960011C15.2045 1.48801 14.4605 2.20801 13.9165 3.12001C13.3725 4.01601 13.1005 5.03201 13.1005 6.16801C13.1005 7.30401 13.3725 8.33601 13.9165 9.26401C14.4765 10.176 15.2205 10.904 16.1485 11.448ZM20.8525 8.92801C20.4045 9.18401 19.8845 9.31201 19.2925 9.31201C18.7165 9.31201 18.2045 9.18401 17.7565 8.92801C17.3085 8.65601 16.9565 8.28801 16.7005 7.82401C16.4445 7.34401 16.3165 6.80001 16.3165 6.19201C16.3165 5.58401 16.4445 5.04801 16.7005 4.58401C16.9565 4.12001 17.3085 3.76001 17.7565 3.50401C18.2045 3.23201 18.7165 3.09601 19.2925 3.09601C19.8845 3.09601 20.4045 3.23201 20.8525 3.50401C21.3005 3.76001 21.6525 4.12001 21.9085 4.58401C22.1645 5.04801 22.2925 5.58401 22.2925 6.19201C22.2925 6.80001 22.1645 7.34401 21.9085 7.82401C21.6685 8.28801 21.3165 8.65601 20.8525 8.92801ZM25.8605 0.408011L30.9725 12H33.2285L38.3165 0.408011H34.9805L32.1392 7.75091L29.3165 0.408011H25.8605ZM41.7428 11.472C42.6868 11.984 43.7668 12.24 44.9828 12.24C45.9268 12.24 46.7988 12.072 47.5988 11.736C48.4148 11.4 49.1028 10.904 49.6628 10.248L47.8148 8.40001C47.4628 8.80001 47.0468 9.10401 46.5668 9.31201C46.0868 9.50401 45.5508 9.60001 44.9588 9.60001C44.3028 9.60001 43.7268 9.46401 43.2308 9.19201C42.7348 8.90401 42.3508 8.50401 42.0788 7.99201C41.9765 7.78102 41.8947 7.55598 41.8333 7.31689L50.3108 7.29601C50.3748 7.02401 50.4148 6.78401 50.4308 6.57601C50.4628 6.35201 50.4788 6.13601 50.4788 5.92801C50.4788 4.82401 50.2308 3.84001 49.7348 2.97601C49.2548 2.09601 48.5828 1.40801 47.7188 0.912011C46.8708 0.400011 45.8868 0.144012 44.7668 0.144012C43.6308 0.144012 42.5988 0.416011 41.6708 0.960011C40.7428 1.48801 40.0068 2.20801 39.4628 3.12001C38.9348 4.01601 38.6708 5.04001 38.6708 6.19201C38.6708 7.36001 38.9428 8.40001 39.4868 9.31201C40.0468 10.224 40.7988 10.944 41.7428 11.472ZM41.836 4.96433C41.8922 4.75215 41.9652 4.55338 42.0548 4.36801C42.3108 3.85601 42.6708 3.46401 43.1348 3.19201C43.5988 2.90401 44.1428 2.76001 44.7668 2.76001C45.3588 2.76001 45.8548 2.88801 46.2548 3.14401C46.6708 3.38401 46.9828 3.73601 47.1908 4.20001C47.2987 4.4234 47.3843 4.67275 47.4476 4.94807L41.836 4.96433ZM52.4232 0.408011V12H55.5672V5.59201C55.5672 4.72801 55.7752 4.08801 56.1912 3.67201C56.6232 3.24001 57.1752 3.02401 57.8472 3.02401C58.1672 3.02401 58.4472 3.07201 58.6872 3.16801C58.9432 3.26401 59.1592 3.40801 59.3352 3.60001L61.3032 1.34401C60.9352 0.928011 60.5272 0.632011 60.0792 0.456011C59.6312 0.264011 59.1272 0.168011 58.5672 0.168011C57.2712 0.168011 56.2792 0.584011 55.5912 1.41601C55.5832 1.42554 55.5752 1.43512 55.5672 1.44474V0.408011H52.4232ZM17.408 29.448C18.256 29.976 19.216 30.24 20.288 30.24C21.12 30.24 21.872 30.064 22.544 29.712C22.9442 29.5024 23.2962 29.2473 23.6 28.9468V30H26.72V12.648H23.576V19.4171C23.2722 19.1205 22.9202 18.8721 22.52 18.672C21.864 18.336 21.12 18.168 20.288 18.168C19.2 18.168 18.232 18.432 17.384 18.96C16.552 19.488 15.888 20.208 15.392 21.12C14.912 22.032 14.672 23.064 14.672 24.216C14.672 25.352 14.912 26.376 15.392 27.288C15.888 28.2 16.56 28.92 17.408 29.448ZM22.352 26.952C21.92 27.208 21.408 27.336 20.816 27.336C20.256 27.336 19.752 27.208 19.304 26.952C18.856 26.68 18.504 26.312 18.248 25.848C18.008 25.368 17.888 24.816 17.888 24.192C17.888 23.584 18.008 23.048 18.248 22.584C18.504 22.12 18.848 21.752 19.28 21.48C19.728 21.208 20.248 21.072 20.84 21.072C21.416 21.072 21.92 21.208 22.352 21.48C22.8 21.736 23.144 22.104 23.384 22.584C23.64 23.048 23.768 23.584 23.768 24.192C23.768 24.816 23.64 25.368 23.384 25.848C23.144 26.312 22.8 26.68 22.352 26.952ZM31.4933 29.448C32.3413 29.976 33.2933 30.24 34.3493 30.24C35.1813 30.24 35.9253 30.072 36.5813 29.736C37.0175 29.502 37.3934 29.215 37.7093 28.8749V30H40.8293V18.408H37.7093V19.5224C37.3934 19.1789 37.0175 18.8954 36.5813 18.672C35.9253 18.336 35.1813 18.168 34.3493 18.168C33.2933 18.168 32.3413 18.432 31.4933 18.96C30.6453 19.488 29.9813 20.208 29.5013 21.12C29.0213 22.032 28.7813 23.064 28.7813 24.216C28.7813 25.352 29.0213 26.376 29.5013 27.288C29.9813 28.2 30.6453 28.92 31.4933 29.448ZM37.0613 26.472C36.5173 27.048 35.8053 27.336 34.9253 27.336C34.3493 27.336 33.8373 27.208 33.3893 26.952C32.9573 26.68 32.6133 26.312 32.3573 25.848C32.1173 25.368 31.9973 24.816 31.9973 24.192C31.9973 23.584 32.1173 23.048 32.3573 22.584C32.6133 22.104 32.9573 21.736 33.3893 21.48C33.8373 21.208 34.3493 21.072 34.9253 21.072C35.5173 21.072 36.0293 21.208 36.4613 21.48C36.9093 21.736 37.2533 22.104 37.4933 22.584C37.7493 23.048 37.8773 23.584 37.8773 24.192C37.8773 25.12 37.6053 25.88 37.0613 26.472ZM51.4107 23.352V30H54.5547V22.656C54.5547 21.872 54.3627 21.144 53.9787 20.472C53.5947 19.784 53.0667 19.232 52.3947 18.816C51.7227 18.384 50.9627 18.168 50.1147 18.168C49.2347 18.168 48.4427 18.36 47.7387 18.744C47.3692 18.9503 47.0412 19.2004 46.7547 19.4943V18.408H43.6107V30H46.7547V23.352C46.7547 22.888 46.8507 22.48 47.0427 22.128C47.2507 21.776 47.5307 21.504 47.8827 21.312C48.2347 21.12 48.6347 21.024 49.0827 21.024C49.7707 21.024 50.3307 21.24 50.7627 21.672C51.1947 22.104 51.4107 22.664 51.4107 23.352ZM57.8313 29.664C58.1993 30.048 58.6713 30.24 59.2473 30.24C59.8073 30.24 60.2713 30.048 60.6393 29.664C61.0073 29.28 61.1913 28.808 61.1913 28.248C61.1913 27.688 61.0073 27.216 60.6393 26.832C60.2713 26.448 59.8073 26.256 59.2473 26.256C58.6713 26.256 58.1993 26.448 57.8313 26.832C57.4633 27.216 57.2793 27.688 57.2793 28.248C57.2793 28.808 57.4633 29.28 57.8313 29.664Z" fill="black"/>
</svg>
