<svg width="58" height="15" viewBox="0 0 58 15" fill="none" xmlns="http://www.w3.org/2000/svg">
<path d="M20.816 11L18.286 3.3H19.529L21.432 9.229H21.102L22.961 3.3H23.841L25.7 9.229H25.37L27.273 3.3H28.516L25.986 11H25.106L23.236 5.082H23.566L21.696 11H20.816ZM31.1572 11.11C30.6292 11.11 30.1525 10.9927 29.7272 10.758C29.3092 10.516 28.9755 10.186 28.7262 9.768C28.4842 9.35 28.3632 8.88067 28.3632 8.36C28.3632 7.83933 28.4842 7.37367 28.7262 6.963C28.9682 6.545 29.2945 6.215 29.7052 5.973C30.1232 5.731 30.5852 5.61 31.0912 5.61C31.5825 5.61 32.0152 5.72367 32.3892 5.951C32.7705 6.17833 33.0675 6.49 33.2802 6.886C33.5002 7.282 33.6102 7.733 33.6102 8.239C33.6102 8.327 33.6029 8.41867 33.5882 8.514C33.5809 8.602 33.5662 8.701 33.5442 8.811H29.2102V7.821H32.9172L32.4662 8.217C32.4515 7.89433 32.3892 7.623 32.2792 7.403C32.1692 7.183 32.0115 7.01433 31.8062 6.897C31.6082 6.77967 31.3625 6.721 31.0692 6.721C30.7612 6.721 30.4935 6.787 30.2662 6.919C30.0389 7.051 29.8629 7.238 29.7382 7.48C29.6135 7.71467 29.5512 7.997 29.5512 8.327C29.5512 8.657 29.6172 8.94667 29.7492 9.196C29.8812 9.44533 30.0682 9.63967 30.3102 9.779C30.5522 9.911 30.8309 9.977 31.1462 9.977C31.4175 9.977 31.6669 9.92933 31.8942 9.834C32.1289 9.73867 32.3269 9.59933 32.4882 9.416L33.2582 10.197C33.0015 10.4977 32.6899 10.725 32.3232 10.879C31.9565 11.033 31.5679 11.11 31.1572 11.11ZM37.4072 11.11C37.0038 11.11 36.6445 11.0257 36.3292 10.857C36.0138 10.681 35.7645 10.4427 35.5812 10.142C35.4052 9.84133 35.3172 9.50033 35.3172 9.119V7.601C35.3172 7.21967 35.4088 6.87867 35.5922 6.578C35.7755 6.27733 36.0248 6.04267 36.3402 5.874C36.6555 5.698 37.0112 5.61 37.4072 5.61C37.8838 5.61 38.3128 5.73467 38.6942 5.984C39.0828 6.226 39.3872 6.556 39.6072 6.974C39.8345 7.38467 39.9482 7.85033 39.9482 8.371C39.9482 8.88433 39.8345 9.35 39.6072 9.768C39.3872 10.1787 39.0828 10.505 38.6942 10.747C38.3128 10.989 37.8838 11.11 37.4072 11.11ZM34.5802 11V3.08H35.7902V7.018L35.5812 8.294L35.7902 9.581V11H34.5802ZM37.2092 9.966C37.5025 9.966 37.7592 9.9 37.9792 9.768C38.2065 9.62867 38.3825 9.438 38.5072 9.196C38.6392 8.954 38.7052 8.67533 38.7052 8.36C38.7052 8.04467 38.6392 7.766 38.5072 7.524C38.3825 7.282 38.2065 7.095 37.9792 6.963C37.7592 6.82367 37.5025 6.754 37.2092 6.754C36.9158 6.754 36.6555 6.82367 36.4282 6.963C36.2008 7.095 36.0248 7.282 35.9002 7.524C35.7755 7.766 35.7132 8.04467 35.7132 8.36C35.7132 8.67533 35.7755 8.954 35.9002 9.196C36.0248 9.438 36.2008 9.62867 36.4282 9.768C36.6555 9.9 36.9158 9.966 37.2092 9.966ZM42.688 11.11C42.3947 11.11 42.1124 11.0733 41.841 11C41.5697 10.9193 41.3204 10.8093 41.093 10.67C40.8657 10.5233 40.6677 10.3473 40.499 10.142L41.269 9.372C41.4524 9.58467 41.6614 9.746 41.896 9.856C42.138 9.95867 42.4094 10.01 42.71 10.01C42.9814 10.01 43.1867 9.96967 43.326 9.889C43.4654 9.80833 43.535 9.691 43.535 9.537C43.535 9.37567 43.469 9.251 43.337 9.163C43.205 9.075 43.0327 9.00167 42.82 8.943C42.6147 8.877 42.3947 8.811 42.16 8.745C41.9327 8.679 41.7127 8.591 41.5 8.481C41.2947 8.36367 41.126 8.206 40.994 8.008C40.862 7.81 40.796 7.55333 40.796 7.238C40.796 6.90067 40.873 6.611 41.027 6.369C41.1884 6.127 41.412 5.94 41.698 5.808C41.9914 5.676 42.3397 5.61 42.743 5.61C43.1684 5.61 43.5424 5.687 43.865 5.841C44.195 5.98767 44.47 6.21133 44.69 6.512L43.92 7.282C43.766 7.09133 43.59 6.94833 43.392 6.853C43.194 6.75767 42.9667 6.71 42.71 6.71C42.468 6.71 42.281 6.74667 42.149 6.82C42.017 6.89333 41.951 6.99967 41.951 7.139C41.951 7.28567 42.017 7.39933 42.149 7.48C42.281 7.56067 42.4497 7.63033 42.655 7.689C42.8677 7.74767 43.0877 7.81367 43.315 7.887C43.5497 7.953 43.7697 8.04833 43.975 8.173C44.1877 8.29033 44.36 8.45167 44.492 8.657C44.624 8.855 44.69 9.11533 44.69 9.438C44.69 9.95133 44.5104 10.3583 44.151 10.659C43.7917 10.9597 43.304 11.11 42.688 11.11ZM45.6986 11V5.72H46.9086V11H45.6986ZM46.3036 4.752C46.0983 4.752 45.9259 4.68233 45.7866 4.543C45.6546 4.40367 45.5886 4.23133 45.5886 4.026C45.5886 3.82067 45.6546 3.64833 45.7866 3.509C45.9259 3.36967 46.0983 3.3 46.3036 3.3C46.5163 3.3 46.6886 3.36967 46.8206 3.509C46.9526 3.64833 47.0186 3.82067 47.0186 4.026C47.0186 4.23133 46.9526 4.40367 46.8206 4.543C46.6886 4.68233 46.5163 4.752 46.3036 4.752ZM49.0687 11V3.52H50.2787V11H49.0687ZM47.8037 6.82V5.72H51.5437V6.82H47.8037ZM54.7256 11.11C54.1976 11.11 53.7209 10.9927 53.2956 10.758C52.8776 10.516 52.5439 10.186 52.2946 9.768C52.0526 9.35 51.9316 8.88067 51.9316 8.36C51.9316 7.83933 52.0526 7.37367 52.2946 6.963C52.5366 6.545 52.8629 6.215 53.2736 5.973C53.6916 5.731 54.1536 5.61 54.6596 5.61C55.1509 5.61 55.5836 5.72367 55.9576 5.951C56.3389 6.17833 56.6359 6.49 56.8486 6.886C57.0686 7.282 57.1786 7.733 57.1786 8.239C57.1786 8.327 57.1712 8.41867 57.1566 8.514C57.1492 8.602 57.1346 8.701 57.1126 8.811H52.7786V7.821H56.4856L56.0346 8.217C56.0199 7.89433 55.9576 7.623 55.8476 7.403C55.7376 7.183 55.5799 7.01433 55.3746 6.897C55.1766 6.77967 54.9309 6.721 54.6376 6.721C54.3296 6.721 54.0619 6.787 53.8346 6.919C53.6072 7.051 53.4312 7.238 53.3066 7.48C53.1819 7.71467 53.1196 7.997 53.1196 8.327C53.1196 8.657 53.1856 8.94667 53.3176 9.196C53.4496 9.44533 53.6366 9.63967 53.8786 9.779C54.1206 9.911 54.3992 9.977 54.7146 9.977C54.9859 9.977 55.2352 9.92933 55.4626 9.834C55.6972 9.73867 55.8952 9.59933 56.0566 9.416L56.8266 10.197C56.5699 10.4977 56.2582 10.725 55.8916 10.879C55.5249 11.033 55.1362 11.11 54.7256 11.11Z" fill="#2C2D42"/>
<path d="M10.5883 8.91669C10.645 8.44919 10.6875 7.98169 10.6875 7.50002C10.6875 7.01835 10.645 6.55085 10.5883 6.08335H12.9825C13.0958 6.53669 13.1667 7.01127 13.1667 7.50002C13.1667 7.98877 13.0958 8.46335 12.9825 8.91669M9.33457 12.855C9.75957 12.0688 10.0854 11.2188 10.3121 10.3334H12.4017C11.7154 11.515 10.6267 12.4102 9.33457 12.855ZM9.15749 8.91669H5.84249C5.77166 8.44919 5.72916 7.98169 5.72916 7.50002C5.72916 7.01835 5.77166 6.54377 5.84249 6.08335H9.15749C9.22124 6.54377 9.27082 7.01835 9.27082 7.50002C9.27082 7.98169 9.22124 8.44919 9.15749 8.91669ZM7.49999 13.1384C6.91207 12.2884 6.43749 11.3463 6.14707 10.3334H8.85291C8.56249 11.3463 8.08791 12.2884 7.49999 13.1384ZM4.66666 4.66669H2.59832C3.27751 3.4818 4.36547 2.58524 5.65832 2.14502C5.23332 2.93127 4.91457 3.78127 4.66666 4.66669ZM2.59832 10.3334H4.66666C4.91457 11.2188 5.23332 12.0688 5.65832 12.855C4.36818 12.41 3.28176 11.5147 2.59832 10.3334ZM2.01749 8.91669C1.90416 8.46335 1.83332 7.98877 1.83332 7.50002C1.83332 7.01127 1.90416 6.53669 2.01749 6.08335H4.41166C4.35499 6.55085 4.31249 7.01835 4.31249 7.50002C4.31249 7.98169 4.35499 8.44919 4.41166 8.91669M7.49999 1.8546C8.08791 2.7046 8.56249 3.65377 8.85291 4.66669H6.14707C6.43749 3.65377 6.91207 2.7046 7.49999 1.8546ZM12.4017 4.66669H10.3121C10.0904 3.78939 9.7621 2.94253 9.33457 2.14502C10.6379 2.59127 11.7217 3.49085 12.4017 4.66669ZM7.49999 0.416687C3.58291 0.416687 0.416656 3.60419 0.416656 7.50002C0.416656 9.37864 1.16293 11.1803 2.49132 12.5087C3.14907 13.1664 3.92993 13.6882 4.78932 14.0442C5.64871 14.4001 6.56979 14.5834 7.49999 14.5834C9.37861 14.5834 11.1803 13.8371 12.5087 12.5087C13.837 11.1803 14.5833 9.37864 14.5833 7.50002C14.5833 6.56982 14.4001 5.64874 14.0441 4.78935C13.6882 3.92996 13.1664 3.1491 12.5087 2.49135C11.8509 1.8336 11.0701 1.31184 10.2107 0.955874C9.35128 0.599903 8.43019 0.416687 7.49999 0.416687Z" fill="#2C2D42"/>
</svg>
